<svg width="97" height="89" viewBox="0 0 97 89" fill="none" xmlns="http://www.w3.org/2000/svg">
<rect x="1.99951" y="2" width="93" height="85" rx="23" fill="#20252A"/>
<g clip-path="url(#clip0_25_784)">
<path fill-rule="evenodd" clip-rule="evenodd" d="M49.1266 54.867C46.327 54.923 43.5341 54.5716 40.8356 53.824C40.6372 53.7577 40.4646 53.6308 40.3421 53.4613C40.2196 53.2918 40.1533 53.0881 40.1526 52.879L40.1526 47.909C40.153 47.8898 40.1578 47.871 40.1666 47.854L37.2856 37.234L37.3006 37.234C37.2508 37.0394 37.2613 36.8343 37.3307 36.6458C37.4 36.4573 37.5249 36.2943 37.6889 36.1783C37.8529 36.0624 38.0482 35.9989 38.249 35.9963C38.4498 35.9938 38.6467 36.0522 38.8136 36.164L44.7206 40.4L48.1446 33.745L48.1446 33.737L48.1516 33.729L48.1696 33.7L48.1696 33.708L48.3696 33.469L48.3596 33.427L48.6766 33.107C48.9115 32.9894 49.1834 32.9698 49.4328 33.0525C49.6821 33.1352 49.8885 33.3133 50.0066 33.548L53.4476 40.564L59.3576 36.224C59.5172 36.0872 59.7161 36.0046 59.9256 35.9881C60.1351 35.9716 60.3445 36.0219 60.5236 36.132L60.2656 36.02C60.2327 36.0112 60.1993 36.0045 60.1656 36C60.1459 35.999 60.1262 35.999 60.1066 36C60.2442 36.0161 60.3769 36.061 60.496 36.1316C60.6152 36.2022 60.7183 36.2971 60.7986 36.41L60.6536 36.21C60.7962 36.3321 60.9011 36.4924 60.956 36.6719C61.0108 36.8515 61.0135 37.043 60.9636 37.224L58.0366 48.024L58.0366 52.872C58.0372 53.0801 57.9723 53.2832 57.8509 53.4523C57.7296 53.6214 57.558 53.748 57.3606 53.814C54.8822 54.5127 52.3195 54.8671 49.7446 54.867C49.5386 54.8716 49.3326 54.8716 49.1266 54.867ZM56.0546 52.121L56.0546 49.2C53.7774 49.6837 51.4545 49.9184 49.1266 49.9C46.7767 49.916 44.4319 49.6793 42.1326 49.194L42.1326 52.122C44.4264 52.6465 46.7736 52.9019 49.1266 52.883C51.4579 52.903 53.7834 52.6472 56.0546 52.121ZM49.1316 47.908C51.4589 47.9486 53.7818 47.6908 56.0436 47.141L58.3106 39.454L53.6616 42.754L53.6616 42.749C53.5452 42.833 53.4119 42.8907 53.2709 42.918C53.13 42.9452 52.9848 42.9415 52.8454 42.9069C52.7061 42.8724 52.5759 42.8079 52.464 42.7179C52.3522 42.6279 52.2612 42.5147 52.1976 42.386L49.1316 36.164L49.0806 36.039L48.6446 36.954C47.7516 39.154 46.0526 42.388 46.0526 42.388C45.9707 42.5529 45.8443 42.6917 45.6878 42.7887C45.5312 42.8857 45.3507 42.937 45.1666 42.937C45.0946 42.937 44.9666 42.868 44.5586 42.583L44.2906 42.408L44.2556 42.387C44.0856 42.274 43.9096 42.153 43.7406 42.034C43.3036 41.724 42.3966 41.019 39.6206 39.111L39.6326 39.124L42.0256 47.124C44.3406 47.7453 46.7368 48.01 49.1316 47.909L49.1316 47.908ZM59.4386 36.164L59.4386 36.17L59.4506 36.162L59.4386 36.164ZM60.6536 36.22C60.6144 36.1864 60.5726 36.156 60.5286 36.129L60.6136 36.166L60.6536 36.22Z" fill="#FFFB00"/>
</g>
<rect x="1.99951" y="2" width="93" height="85" rx="23" stroke="#FFFB00" stroke-width="4"/>
<defs>
<clipPath id="clip0_25_784">
<rect width="24" height="24" fill="white" transform="translate(36.9995 33)"/>
</clipPath>
</defs>
</svg>
