<svg width="98" height="89" viewBox="0 0 98 89" fill="none" xmlns="http://www.w3.org/2000/svg">
<rect x="1.99951" y="2" width="94" height="85" rx="23" fill="#20252A"/>
<g clip-path="url(#clip0_25_804)">
<path fill-rule="evenodd" clip-rule="evenodd" d="M55.9995 40C55.7343 40 55.4799 39.8946 55.2924 39.7071C55.1049 39.5196 54.9995 39.2652 54.9995 39L54.9995 35L42.9995 35L42.9995 39C42.9995 39.2652 42.8942 39.5196 42.7066 39.7071C42.5191 39.8946 42.2647 40 41.9995 40C41.7343 40 41.4799 39.8946 41.2924 39.7071C41.1049 39.5196 40.9995 39.2652 40.9995 39L40.9995 34C40.9995 33.7348 41.1049 33.4804 41.2924 33.2929C41.4799 33.1054 41.7343 33 41.9995 33L55.9995 33C56.2647 33 56.5191 33.1054 56.7066 33.2929C56.8942 33.4804 56.9995 33.7348 56.9995 34L56.9995 39C56.9995 39.2652 56.8942 39.5196 56.7066 39.7071C56.5191 39.8946 56.2647 40 55.9995 40ZM48.9995 47C46.8785 46.9976 44.8451 46.154 43.3453 44.6542C41.8455 43.1544 41.0019 41.121 40.9995 39C40.9995 38.7348 41.1049 38.4804 41.2924 38.2929C41.4799 38.1054 41.7343 38 41.9995 38C42.2647 38 42.5191 38.1054 42.7066 38.2929C42.8942 38.4804 42.9995 38.7348 42.9995 39C42.9995 40.5913 43.6317 42.1174 44.7569 43.2426C45.8821 44.3679 47.4082 45 48.9995 45C50.5908 45 52.1169 44.3679 53.2422 43.2426C54.3674 42.1174 54.9995 40.5913 54.9995 39C54.9995 38.7348 55.1049 38.4804 55.2924 38.2929C55.4799 38.1054 55.7343 38 55.9995 38C56.2647 38 56.5191 38.1054 56.7066 38.2929C56.8942 38.4804 56.9995 38.7348 56.9995 39C56.9969 41.1209 56.1532 43.1542 54.6534 44.6539C53.1537 46.1536 51.1204 46.9974 48.9995 47ZM55.9995 41C55.7343 41 55.4799 40.8946 55.2924 40.7071C55.1049 40.5196 54.9995 40.2652 54.9995 40C54.9995 39.7348 55.1049 39.4804 55.2924 39.2929C55.4799 39.1054 55.7343 39 55.9995 39C57.3225 39 58.4915 37.524 58.8705 36L55.9995 36C55.7343 36 55.4799 35.8946 55.2924 35.7071C55.1049 35.5196 54.9995 35.2652 54.9995 35C54.9995 34.7348 55.1049 34.4804 55.2924 34.2929C55.4799 34.1054 55.7343 34 55.9995 34L59.9995 34C60.2647 34 60.5191 34.1054 60.7066 34.2929C60.8942 34.4804 60.9995 34.7348 60.9995 35C60.9995 37.832 58.8595 41 55.9995 41ZM41.9995 41C39.1375 41 36.9995 37.832 36.9995 35C36.9995 34.7348 37.1049 34.4804 37.2924 34.2929C37.4799 34.1054 37.7343 34 37.9995 34L41.9995 34C42.2647 34 42.5191 34.1054 42.7066 34.2929C42.8942 34.4804 42.9995 34.7348 42.9995 35C42.9995 35.2652 42.8942 35.5196 42.7066 35.7071C42.5191 35.8946 42.2647 36 41.9995 36L39.1265 36C39.5055 37.523 40.6745 39 41.9995 39C42.2647 39 42.5191 39.1054 42.7066 39.2929C42.8942 39.4804 42.9995 39.7348 42.9995 40C42.9995 40.2652 42.8942 40.5196 42.7066 40.7071C42.5191 40.8946 42.2647 41 41.9995 41ZM48.9995 54C48.7343 54 48.4799 53.8946 48.2924 53.7071C48.1049 53.5196 47.9995 53.2652 47.9995 53L47.9995 46.132C47.9995 45.8668 48.1049 45.6124 48.2924 45.4249C48.4799 45.2374 48.7343 45.132 48.9995 45.132C49.2647 45.132 49.5191 45.2374 49.7066 45.4249C49.8942 45.6124 49.9995 45.8668 49.9995 46.132L49.9995 53C49.9995 53.2652 49.8942 53.5196 49.7066 53.7071C49.5191 53.8946 49.2647 54 48.9995 54ZM53.9995 57L43.9995 57C43.7343 57 43.4799 56.8946 43.2924 56.7071C43.1049 56.5196 42.9995 56.2652 42.9995 56C42.9995 55.7348 43.1049 55.4804 43.2924 55.2929C43.4799 55.1054 43.7343 55 43.9995 55L53.9995 55C54.2647 55 54.5191 55.1054 54.7066 55.2929C54.8942 55.4804 54.9995 55.7348 54.9995 56C54.9995 56.2652 54.8942 56.5196 54.7066 56.7071C54.5191 56.8946 54.2647 57 53.9995 57ZM51.9995 54L45.9995 54C45.7343 54 45.4799 53.8946 45.2924 53.7071C45.1049 53.5196 44.9995 53.2652 44.9995 53C44.9995 52.7348 45.1049 52.4804 45.2924 52.2929C45.4799 52.1054 45.7343 52 45.9995 52L51.9995 52C52.2647 52 52.5191 52.1054 52.7066 52.2929C52.8942 52.4804 52.9995 52.7348 52.9995 53C52.9995 53.2652 52.8942 53.5196 52.7066 53.7071C52.5191 53.8946 52.2647 54 51.9995 54Z" fill="#FFFB00"/>
<path fill-rule="evenodd" clip-rule="evenodd" d="M54.9995 39L54.9995 35L42.9995 35L42.9995 39C42.9995 39.2652 42.8942 39.5196 42.7066 39.7071C42.5191 39.8946 42.2647 40 41.9995 40C41.4475 40 40.9995 39.3 40.9995 38.752L40.9995 34C40.9995 33.7348 41.1049 33.4804 41.2924 33.2929C41.4799 33.1054 41.7343 33 41.9995 33L55.9995 33C56.2647 33 56.5191 33.1054 56.7066 33.2929C56.8942 33.4804 56.9995 33.7348 56.9995 34L56.9995 39L55.0995 39.229L54.9995 39ZM48.9995 47C44.5835 47 42.9995 45.137 42.9995 40.721C42.9995 40.168 42.9995 38.448 42.9995 39C42.9995 40.5913 43.6317 42.1174 44.7569 43.2426C45.8821 44.3679 47.4082 45 48.9995 45C50.5908 45 52.1169 44.3679 53.2422 43.2426C54.3674 42.1174 54.9995 40.5913 54.9995 39L55.0995 39.229L56.9995 39C56.9969 41.1209 56.1532 43.1542 54.6534 44.6539C53.1537 46.1536 51.1204 46.9974 48.9995 47ZM58.8705 36C57.4905 36 57.2815 34 59.9995 34C60.2647 34 60.5191 34.1054 60.7066 34.2929C60.8942 34.4804 60.9995 34.7348 60.9995 35C60.9995 37.832 58.4915 37.524 58.8705 36ZM41.9995 41C39.1375 41 36.9995 37.832 36.9995 35C36.9995 34.7348 37.1049 34.4804 37.2924 34.2929C37.4799 34.1054 37.7343 34 37.9995 34C39.9165 34 40.3775 34.405 40.6595 34.905C40.9415 35.405 41.1095 36 39.1265 36C39.5055 37.523 40.6745 39 41.9995 39C42.2647 39 42.5191 39.1054 42.7066 39.2929C42.8942 39.4804 42.9995 39.7348 42.9995 40C42.9995 40.2652 42.8942 40.5196 42.7066 40.7071C42.5191 40.8946 42.2647 41 41.9995 41ZM48.9995 48C49.9995 53.552 48.9995 47.448 48.9995 48ZM53.9995 57L43.9995 57C43.7343 57 43.4799 56.8946 43.2924 56.7071C43.1049 56.5196 42.9995 56.2652 42.9995 56C42.9995 55.7348 43.1049 55.4804 43.2924 55.2929C43.4799 55.1054 43.7343 55 43.9995 55L53.9995 55C54.2647 55 54.5191 55.1054 54.7066 55.2929C54.8942 55.4804 54.9995 55.7348 54.9995 56C54.9995 56.2652 54.8942 56.5196 54.7066 56.7071C54.5191 56.8946 54.2647 57 53.9995 57ZM51.9995 54L45.9995 54C45.7343 54 45.4799 53.8946 45.2924 53.7071C45.1049 53.5196 44.9995 53.2652 44.9995 53C44.9995 52.7348 45.1049 52.4804 45.2924 52.2929C45.4799 52.1054 45.7343 52 45.9995 52L51.9995 52C52.2647 52 52.5191 52.1054 52.7066 52.2929C52.8942 52.4804 52.9995 52.7348 52.9995 53C52.9995 53.2652 52.8942 53.5196 52.7066 53.7071C52.5191 53.8946 52.2647 54 51.9995 54Z" fill="#FFFB00"/>
</g>
<rect x="1.99951" y="2" width="94" height="85" rx="23" stroke="#FFFB00" stroke-width="4"/>
<defs>
<clipPath id="clip0_25_804">
<rect width="24" height="24" fill="white" transform="translate(36.9995 33)"/>
</clipPath>
</defs>
</svg>
