<svg width="101" height="24" viewBox="0 0 101 24" fill="none" xmlns="http://www.w3.org/2000/svg">
<path d="M0.029541 13.5C0.029541 11.2909 1.8204 9.5 4.02954 9.5L40.5095 9.5L40.5095 17.5L4.02954 17.5C1.8204 17.5 0.029541 15.7091 0.029541 13.5V13.5Z" fill="#000A20" fill-opacity="0.05"/>
<g clip-path="url(#clip0_52_2397)">
<path fill-rule="evenodd" clip-rule="evenodd" d="M46.3529 7.16667L46.3529 8.83333L45.5195 8.83333C44.8565 8.83333 44.2206 9.09672 43.7518 9.56557C43.2829 10.0344 43.0195 10.6703 43.0195 11.3333L43.0195 16.3333C43.0195 16.9964 43.2829 17.6323 43.7518 18.1011C44.2206 18.5699 44.8565 18.8333 45.5195 18.8333L55.5195 18.8333C56.1826 18.8333 56.8185 18.5699 57.2873 18.1011C57.7561 17.6323 58.0195 16.9964 58.0195 16.3333L58.0195 11.3333C58.0195 10.6703 57.7561 10.0344 57.2873 9.56557C56.8185 9.09672 56.1826 8.83333 55.5195 8.83333L54.6862 8.83333L54.6862 7.16667C54.6862 6.0616 54.2472 5.00179 53.4658 4.22039C52.6844 3.43899 51.6246 3 50.5195 3C49.4145 3 48.3547 3.43899 47.5733 4.22039C46.7919 5.00179 46.3529 6.0616 46.3529 7.16667ZM53.0195 7.16667L53.0195 8.83333L48.0195 8.83333L48.0195 7.16667C48.0195 6.50363 48.2829 5.86774 48.7518 5.3989C49.2206 4.93006 49.8565 4.66667 50.5195 4.66667C51.1826 4.66667 51.8185 4.93006 52.2873 5.3989C52.7561 5.86774 53.0195 6.50363 53.0195 7.16667ZM50.5195 12.1667C50.0775 12.1667 49.6536 12.3423 49.341 12.6548C49.0285 12.9674 48.8529 13.3913 48.8529 13.8333C48.8529 14.2754 49.0285 14.6993 49.341 15.0118C49.6536 15.3244 50.0775 15.5 50.5195 15.5C50.9616 15.5 51.3855 15.3244 51.698 15.0118C52.0106 14.6993 52.1862 14.2754 52.1862 13.8333C52.1862 13.3913 52.0106 12.9674 51.698 12.6548C51.3855 12.3423 50.9616 12.1667 50.5195 12.1667Z" fill="#BFBFBF"/>
</g>
<path d="M60.5195 9.5L96.9995 9.5C99.2087 9.5 101 11.2909 101 13.5V13.5C101 15.7091 99.2087 17.5 96.9995 17.5L60.5195 17.5L60.5195 9.5Z" fill="#000A20" fill-opacity="0.05"/>
<defs>
<clipPath id="clip0_52_2397">
<rect width="20" height="20" fill="white" transform="translate(40.5195 0.5)"/>
</clipPath>
</defs>
</svg>
