<svg width="40" height="40" viewBox="0 0 40 40" fill="none" xmlns="http://www.w3.org/2000/svg">
<g clip-path="url(#clip0_52_5397)">
<path d="M19.9995 40C31.0452 40 39.9995 31.0457 39.9995 20C39.9995 8.9543 31.0452 -2.86934e-09 19.9995 -1.84846e-09C8.95382 -8.27585e-10 -0.00048828 8.9543 -0.000488279 20C-0.000488278 31.0457 8.95382 40 19.9995 40Z" fill="url(#paint0_linear_52_5397)"/>
<g filter="url(#filter0_dd_52_5397)">
<path d="M7.99951 14C7.99951 12.3431 9.34266 11 10.9995 11L28.9995 11C30.6564 11 31.9995 12.3431 31.9995 14L31.9995 27C31.9995 28.6569 30.6564 30 28.9995 30L10.9995 30C9.34266 30 7.99951 28.6569 7.99951 27L7.99951 14Z" fill="white"/>
<path d="M15.9995 8L13.9995 8C13.4472 8 12.9995 8.44772 12.9995 9L12.9995 13C12.9995 13.5523 13.4472 14 13.9995 14L15.9995 14C16.5518 14 16.9995 13.5523 16.9995 13L16.9995 9C16.9995 8.44772 16.5518 8 15.9995 8Z" fill="#FFB800"/>
<path d="M25.9995 8L23.9995 8C23.4472 8 22.9995 8.44772 22.9995 9L22.9995 13C22.9995 13.5523 23.4472 14 23.9995 14L25.9995 14C26.5518 14 26.9995 13.5523 26.9995 13L26.9995 9C26.9995 8.44772 26.5518 8 25.9995 8Z" fill="#FFB800"/>
</g>
<g filter="url(#filter1_d_52_5397)">
<path d="M15.9995 20.8L19.1299 24L24.9995 18" stroke="#2DB55D" stroke-width="2" stroke-linecap="round" stroke-linejoin="round"/>
</g>
</g>
<defs>
<filter id="filter0_dd_52_5397" x="3.99951" y="4" width="32" height="30" filterUnits="userSpaceOnUse" color-interpolation-filters="sRGB">
<feFlood flood-opacity="0" result="BackgroundImageFix"/>
<feColorMatrix in="SourceAlpha" type="matrix" values="0 0 0 0 0 0 0 0 0 0 0 0 0 0 0 0 0 0 127 0" result="hardAlpha"/>
<feOffset dx="1" dy="1"/>
<feGaussianBlur stdDeviation="1.5"/>
<feColorMatrix type="matrix" values="0 0 0 0 0 0 0 0 0 0 0 0 0 0 0 0 0 0 0.25 0"/>
<feBlend mode="normal" in2="BackgroundImageFix" result="effect1_dropShadow_52_5397"/>
<feColorMatrix in="SourceAlpha" type="matrix" values="0 0 0 0 0 0 0 0 0 0 0 0 0 0 0 0 0 0 127 0" result="hardAlpha"/>
<feOffset dx="-1" dy="-1"/>
<feGaussianBlur stdDeviation="1.5"/>
<feColorMatrix type="matrix" values="0 0 0 0 1 0 0 0 0 1 0 0 0 0 1 0 0 0 0.26 0"/>
<feBlend mode="normal" in2="effect1_dropShadow_52_5397" result="effect2_dropShadow_52_5397"/>
<feBlend mode="normal" in="SourceGraphic" in2="effect2_dropShadow_52_5397" result="shape"/>
</filter>
<filter id="filter1_d_52_5397" x="13.9995" y="17" width="13" height="10" filterUnits="userSpaceOnUse" color-interpolation-filters="sRGB">
<feFlood flood-opacity="0" result="BackgroundImageFix"/>
<feColorMatrix in="SourceAlpha" type="matrix" values="0 0 0 0 0 0 0 0 0 0 0 0 0 0 0 0 0 0 127 0" result="hardAlpha"/>
<feOffset dy="1"/>
<feGaussianBlur stdDeviation="0.5"/>
<feColorMatrix type="matrix" values="0 0 0 0 0.176471 0 0 0 0 0.709804 0 0 0 0 0.364706 0 0 0 0.36 0"/>
<feBlend mode="normal" in2="BackgroundImageFix" result="effect1_dropShadow_52_5397"/>
<feBlend mode="normal" in="SourceGraphic" in2="effect1_dropShadow_52_5397" result="shape"/>
</filter>
<linearGradient id="paint0_linear_52_5397" x1="19.9995" y1="-6" x2="19.9995" y2="40" gradientUnits="userSpaceOnUse">
<stop stop-color="#565656"/>
<stop offset="1" stop-color="#494949"/>
</linearGradient>
<clipPath id="clip0_52_5397">
<rect width="40" height="40" fill="white" transform="translate(-0.000488281)"/>
</clipPath>
</defs>
</svg>
