<svg width="65" height="54" viewBox="0 0 65 54" fill="none" xmlns="http://www.w3.org/2000/svg">
<rect x="0.5" y="0.779999" width="64" height="52" rx="1.5" fill="white"/>
<g clip-path="url(#clip0_18_229)">
<path fill-rule="evenodd" clip-rule="evenodd" d="M41.5 18.78V34.78C41.5 35.28 41.1 35.78 40.5 35.78H35.9V28.78H38.2L38.5 26.08H35.8V24.38C35.8 23.58 36 23.08 37.2 23.08H38.6V20.58C38.4 20.58 37.5 20.48 36.5 20.48C34.5 20.48 33.1 21.78 33.1 24.08V26.08H30.8V28.78H33.1V35.78H24.5C24 35.78 23.5 35.38 23.5 34.78V18.78C23.5 18.28 23.9 17.78 24.5 17.78H40.5C41.1 17.78 41.5 18.18 41.5 18.78Z" fill="#3B5998"/>
</g>
<rect x="0.5" y="0.779999" width="64" height="52" rx="1.5" stroke="black"/>
<defs>
<clipPath id="clip0_18_229">
<rect width="18" height="18" fill="white" transform="translate(23.5 17.78)"/>
</clipPath>
</defs>
</svg>
