<svg width="65" height="54" viewBox="0 0 65 54" fill="none" xmlns="http://www.w3.org/2000/svg">
<rect x="0.5" y="0.779999" width="64" height="52" rx="1.5" fill="white"/>
<g clip-path="url(#clip0_18_216)">
<path d="M39.7 17.78H25.3C24.31 17.78 23.5 18.59 23.5 19.58V33.98C23.5 34.97 24.31 35.78 25.3 35.78H39.7C40.69 35.78 41.5 34.97 41.5 33.98V19.58C41.5 18.59 40.69 17.78 39.7 17.78ZM28.9 33.08H26.2V24.98H28.9V33.08ZM27.55 23.45C26.65 23.45 25.93 22.73 25.93 21.83C25.93 20.93 26.65 20.21 27.55 20.21C28.45 20.21 29.17 20.93 29.17 21.83C29.17 22.73 28.45 23.45 27.55 23.45ZM38.8 33.08H36.1V28.31C36.1 27.59 35.47 26.96 34.75 26.96C34.03 26.96 33.4 27.59 33.4 28.31V33.08H30.7V24.98H33.4V26.06C33.85 25.34 34.84 24.8 35.65 24.8C37.36 24.8 38.8 26.24 38.8 27.95V33.08Z" fill="#0E76A8"/>
</g>
<rect x="0.5" y="0.779999" width="64" height="52" rx="1.5" stroke="black"/>
<defs>
<clipPath id="clip0_18_216">
<rect width="18" height="18" fill="white" transform="translate(23.5 17.78)"/>
</clipPath>
</defs>
</svg>
