<svg width="65" height="54" viewBox="0 0 65 54" fill="none" xmlns="http://www.w3.org/2000/svg">
<rect x="0.5" y="0.779999" width="64" height="52" rx="1.5" fill="white"/>
<g clip-path="url(#clip0_18_237)">
<path d="M29.1832 34.0452C35.9308 34.0452 39.6208 28.4551 39.6208 23.6076C39.6208 23.4488 39.6176 23.2908 39.6104 23.1334C40.3284 22.6139 40.948 21.9707 41.4403 21.2338C40.783 21.526 40.0757 21.7226 39.3337 21.8113C40.091 21.3572 40.6725 20.6387 40.9468 19.7823C40.2266 20.2095 39.4389 20.5106 38.6174 20.6727C37.948 19.9597 36.995 19.5138 35.9396 19.5138C33.9138 19.5138 32.271 21.1566 32.271 23.1817C32.271 23.4696 32.3032 23.7496 32.3661 24.0182C29.3172 23.8648 26.6137 22.405 24.8043 20.1854C24.4785 20.7452 24.307 21.3814 24.3076 22.0292C24.3076 23.3019 24.9552 24.4254 25.9401 25.0827C25.3575 25.065 24.7878 24.9077 24.2787 24.624C24.2781 24.6393 24.2781 24.6543 24.2781 24.6708C24.2781 26.4474 25.5426 27.9307 27.2212 28.2668C26.9059 28.3527 26.5806 28.3961 26.2539 28.3959C26.0179 28.3959 25.7879 28.3727 25.5645 28.3298C26.0315 29.7873 27.3857 30.848 28.9913 30.8777C27.7358 31.8618 26.1541 32.4479 24.4351 32.4479C24.1394 32.4479 23.8472 32.4311 23.5601 32.3972C25.1837 33.4378 27.1115 34.045 29.1834 34.045" fill="#1DA1F2"/>
</g>
<rect x="0.5" y="0.779999" width="64" height="52" rx="1.5" stroke="black"/>
<defs>
<clipPath id="clip0_18_237">
<rect width="18" height="18" fill="white" transform="translate(23.5 17.78)"/>
</clipPath>
</defs>
</svg>
