<svg width="65" height="54" viewBox="0 0 65 54" fill="none" xmlns="http://www.w3.org/2000/svg">
<rect x="0.5" y="0.779999" width="64" height="52" rx="1.5" fill="white"/>
<g clip-path="url(#clip0_18_233)">
<path fill-rule="evenodd" clip-rule="evenodd" d="M32.5 17.78C27.527 17.78 23.5 21.81 23.5 26.78C23.4998 28.6691 24.0941 30.5103 25.1986 32.0429C26.3031 33.5755 27.8618 34.7216 29.654 35.319C30.104 35.403 30.269 35.125 30.269 34.886C30.269 34.672 30.261 34.106 30.258 33.356C27.754 33.899 27.226 32.148 27.226 32.148C26.816 31.109 26.225 30.832 26.225 30.832C25.409 30.274 26.288 30.286 26.288 30.286C27.191 30.349 27.666 31.212 27.666 31.212C28.469 32.588 29.773 32.192 30.287 31.961C30.368 31.379 30.6 30.981 30.857 30.757C28.858 30.532 26.758 29.757 26.758 26.31C26.758 25.328 27.107 24.524 27.684 23.894C27.583 23.667 27.279 22.753 27.763 21.513C27.763 21.513 28.516 21.271 30.238 22.435C30.9714 22.2354 31.7279 22.1332 32.488 22.131C33.2481 22.1332 34.0046 22.2354 34.738 22.435C36.448 21.271 37.201 21.513 37.201 21.513C37.685 22.753 37.381 23.667 37.291 23.894C37.865 24.524 38.214 25.328 38.214 26.31C38.214 29.767 36.11 30.529 34.108 30.75C34.423 31.02 34.715 31.571 34.715 32.415C34.715 33.619 34.704 34.586 34.704 34.879C34.704 35.115 34.861 35.396 35.323 35.306C37.12 34.7175 38.685 33.5761 39.7943 32.0449C40.9037 30.5136 41.5007 28.6709 41.5 26.78C41.5 24.3931 40.5518 22.1039 38.864 20.416C37.1761 18.7282 34.8869 17.78 32.5 17.78Z" fill="black"/>
</g>
<rect x="0.5" y="0.779999" width="64" height="52" rx="1.5" stroke="black"/>
<defs>
<clipPath id="clip0_18_233">
<rect width="18" height="18" fill="white" transform="translate(23.5 17.78)"/>
</clipPath>
</defs>
</svg>
