<svg width="144" height="38" viewBox="0 0 144 38" fill="none" xmlns="http://www.w3.org/2000/svg">
<g clip-path="url(#clip0_32_259)">
<path d="M20.4181 0.751953C16.5212 0.751953 12.7119 1.83205 9.47172 3.85566C6.2316 5.87926 3.70616 8.75549 2.2149 12.1206C0.723624 15.4858 0.333441 19.1887 1.09368 22.7611C1.85393 26.3336 3.73048 29.6149 6.48597 32.1903C9.24149 34.7659 12.7523 36.52 16.5743 37.2308C20.3963 37.9413 24.3579 37.5765 27.9582 36.1829C31.5585 34.7888 34.6354 32.4283 36.8006 29.3998C38.9656 26.3713 40.1211 22.8106 40.1211 19.1682C40.1211 14.2839 38.0454 9.59966 34.3503 6.14596C30.6552 2.69223 25.6437 0.751953 20.4181 0.751953ZM32.5213 21.8596C32.5213 22.228 30.7424 22.2806 30.7424 22.6489C30.7424 23.0172 32.5017 23.5171 32.5017 24.025C32.5017 24.6457 28.8763 24.7378 28.8763 25.3588C28.8763 26.0218 31.6262 25.8165 31.6262 26.5348C31.6262 27.3819 24.719 26.9872 24.719 27.8686C24.719 28.2053 25.6029 28.3448 26.7091 28.4554C27.3171 28.5184 27.1846 28.7973 26.8386 28.9816C24.9048 30.0843 22.6834 30.6678 20.4181 30.6678C18.1529 30.6678 15.9314 30.0843 13.9977 28.9816C13.6543 28.7843 13.5192 28.5054 14.1272 28.4554C15.2334 28.3448 16.12 28.1923 16.12 27.8686C16.12 26.9872 9.20989 27.3819 9.20989 26.5348C9.20989 25.8165 11.9627 26.0086 11.9627 25.3588C11.9627 24.7378 8.33457 24.6457 8.33457 24.025C8.33457 23.5171 10.0966 23.0251 10.0966 22.6489C10.0966 22.2727 8.31485 22.2306 8.31485 21.8596C8.31485 21.4887 9.61527 21.2493 9.61527 20.9862C9.61527 20.4889 8.10373 21.394 8.10373 19.1682C8.10373 16.1155 9.4012 13.1879 11.7106 11.0293C14.02 8.87074 17.1521 7.65805 20.4181 7.65805C23.6841 7.65805 26.8164 8.87074 29.1258 11.0293C31.4351 13.1879 32.7324 16.1155 32.7324 19.1682C32.7324 21.394 31.2211 20.4837 31.2211 20.9862C31.2211 21.2493 32.5213 21.4624 32.5213 21.8596Z" fill="#2563EB"/>
</g>
<defs>
<clipPath id="clip0_32_259">
<rect width="142.702" height="37" fill="white" transform="translate(0.715088 0.751953)"/>
</clipPath>
</defs>
</svg>
