<svg width="144" height="38" viewBox="0 0 144 38" fill="none" xmlns="http://www.w3.org/2000/svg">
<g clip-path="url(#clip0_32_111)">
<path d="M20.7305 0.751953C16.8255 0.751953 13.0081 1.83205 9.76124 3.85566C6.51436 5.87926 3.98365 8.75549 2.48927 12.1206C0.994882 15.4858 0.603884 19.1887 1.36571 22.7611C2.12755 26.3336 4.00801 29.6149 6.76926 32.1903C9.53053 34.7659 13.0486 36.52 16.8786 37.2308C20.7086 37.9413 24.6785 37.5765 28.2864 36.1829C31.8942 34.7888 34.9775 32.4283 37.1472 29.3998C39.3167 26.3713 40.4747 22.8106 40.4747 19.1682C40.4747 14.2839 38.3945 9.59966 34.6917 6.14596C30.9889 2.69223 25.967 0.751953 20.7305 0.751953ZM32.8589 21.8596C32.8589 22.228 31.0763 22.2806 31.0763 22.6489C31.0763 23.0172 32.8393 23.5171 32.8393 24.025C32.8393 24.6457 29.2063 24.7378 29.2063 25.3588C29.2063 26.0218 31.962 25.8165 31.962 26.5348C31.962 27.3819 25.0404 26.9872 25.0404 27.8686C25.0404 28.2053 25.9261 28.3448 27.0346 28.4554C27.6438 28.5184 27.5111 28.7973 27.1644 28.9816C25.2266 30.0843 23.0005 30.6678 20.7305 30.6678C18.4605 30.6678 16.2344 30.0843 14.2967 28.9816C13.9526 28.7843 13.8172 28.5054 14.4264 28.4554C15.5349 28.3448 16.4234 28.1923 16.4234 27.8686C16.4234 26.9872 9.49887 27.3819 9.49887 26.5348C9.49887 25.8165 12.2574 26.0086 12.2574 25.3588C12.2574 24.7378 8.62172 24.6457 8.62172 24.025C8.62172 23.5171 10.3874 23.0251 10.3874 22.6489C10.3874 22.2727 8.60196 22.2306 8.60196 21.8596C8.60196 21.4887 9.9051 21.2493 9.9051 20.9862C9.9051 20.4889 8.3904 21.394 8.3904 19.1682C8.3904 16.1155 9.69057 13.1879 12.0048 11.0293C14.319 8.87074 17.4577 7.65805 20.7305 7.65805C24.0033 7.65805 27.1421 8.87074 29.4563 11.0293C31.7705 13.1879 33.0705 16.1155 33.0705 19.1682C33.0705 21.394 31.556 20.4837 31.556 20.9862C31.556 21.2493 32.8589 21.4624 32.8589 21.8596Z" fill="#2563EB"/>
</g>
<defs>
<clipPath id="clip0_32_111">
<rect width="143" height="37" fill="white" transform="translate(0.986328 0.751953)"/>
</clipPath>
</defs>
</svg>
