<svg width="65" height="54" viewBox="0 0 65 54" fill="none" xmlns="http://www.w3.org/2000/svg">
<rect x="0.5" y="1.28" width="64" height="52" rx="1.5" fill="white"/>
<g clip-path="url(#clip0_5_251)">
<path fill-rule="evenodd" clip-rule="evenodd" d="M32.5 18.28C27.527 18.28 23.5 22.31 23.5 27.28C23.4998 29.1691 24.0941 31.0103 25.1986 32.5429C26.3031 34.0755 27.8618 35.2216 29.654 35.819C30.104 35.903 30.269 35.625 30.269 35.386C30.269 35.172 30.261 34.606 30.258 33.856C27.754 34.399 27.226 32.648 27.226 32.648C26.816 31.609 26.225 31.332 26.225 31.332C25.409 30.774 26.288 30.786 26.288 30.786C27.191 30.849 27.666 31.712 27.666 31.712C28.469 33.088 29.773 32.692 30.287 32.461C30.368 31.879 30.6 31.481 30.857 31.257C28.858 31.032 26.758 30.257 26.758 26.81C26.758 25.828 27.107 25.024 27.684 24.394C27.583 24.167 27.279 23.253 27.763 22.013C27.763 22.013 28.516 21.771 30.238 22.935C30.9714 22.7354 31.7279 22.6332 32.488 22.631C33.2481 22.6332 34.0046 22.7354 34.738 22.935C36.448 21.771 37.201 22.013 37.201 22.013C37.685 23.253 37.381 24.167 37.291 24.394C37.865 25.024 38.214 25.828 38.214 26.81C38.214 30.267 36.11 31.029 34.108 31.25C34.423 31.52 34.715 32.071 34.715 32.915C34.715 34.119 34.704 35.086 34.704 35.379C34.704 35.615 34.861 35.896 35.323 35.806C37.12 35.2175 38.685 34.0761 39.7943 32.5449C40.9037 31.0136 41.5007 29.1709 41.5 27.28C41.5 24.8931 40.5518 22.6039 38.864 20.916C37.1761 19.2282 34.8869 18.28 32.5 18.28Z" fill="black"/>
</g>
<rect x="0.5" y="1.28" width="64" height="52" rx="1.5" stroke="#10162F"/>
<defs>
<clipPath id="clip0_5_251">
<rect width="18" height="18" fill="white" transform="translate(23.5 18.28)"/>
</clipPath>
</defs>
</svg>
