<svg width="65" height="54" viewBox="0 0 65 54" fill="none" xmlns="http://www.w3.org/2000/svg">
<rect x="0.5" y="1.28" width="64" height="52" rx="1.5" fill="white"/>
<g clip-path="url(#clip0_5_234)">
<path d="M39.7 18.28H25.3C24.31 18.28 23.5 19.09 23.5 20.08V34.48C23.5 35.47 24.31 36.28 25.3 36.28H39.7C40.69 36.28 41.5 35.47 41.5 34.48V20.08C41.5 19.09 40.69 18.28 39.7 18.28ZM28.9 33.58H26.2V25.48H28.9V33.58ZM27.55 23.95C26.65 23.95 25.93 23.23 25.93 22.33C25.93 21.43 26.65 20.71 27.55 20.71C28.45 20.71 29.17 21.43 29.17 22.33C29.17 23.23 28.45 23.95 27.55 23.95ZM38.8 33.58H36.1V28.81C36.1 28.09 35.47 27.46 34.75 27.46C34.03 27.46 33.4 28.09 33.4 28.81V33.58H30.7V25.48H33.4V26.56C33.85 25.84 34.84 25.3 35.65 25.3C37.36 25.3 38.8 26.74 38.8 28.45V33.58Z" fill="#0E76A8"/>
</g>
<rect x="0.5" y="1.28" width="64" height="52" rx="1.5" stroke="#10162F"/>
<defs>
<clipPath id="clip0_5_234">
<rect width="18" height="18" fill="white" transform="translate(23.5 18.28)"/>
</clipPath>
</defs>
</svg>
