<svg width="65" height="53" viewBox="0 0 65 53" fill="none" xmlns="http://www.w3.org/2000/svg">
<rect x="0.499512" y="0.5" width="64" height="52" rx="1.5" fill="white"/>
<g clip-path="url(#clip0_52_2107)">
<path fill-rule="evenodd" clip-rule="evenodd" d="M41.4995 18.5L41.4995 34.5C41.4995 35 41.0995 35.5 40.4995 35.5L35.8995 35.5L35.8995 28.5L38.1995 28.5L38.4995 25.8L35.7995 25.8L35.7995 24.1C35.7995 23.3 35.9995 22.8 37.1995 22.8L38.5995 22.8L38.5995 20.3C38.3995 20.3 37.4995 20.2 36.4995 20.2C34.4995 20.2 33.0995 21.5 33.0995 23.8L33.0995 25.8L30.7995 25.8L30.7995 28.5L33.0995 28.5L33.0995 35.5L24.4995 35.5C23.9995 35.5 23.4995 35.1 23.4995 34.5L23.4995 18.5C23.4995 18 23.8995 17.5 24.4995 17.5L40.4995 17.5C41.0995 17.5 41.4995 17.9 41.4995 18.5Z" fill="#3B5998"/>
</g>
<rect x="0.499512" y="0.5" width="64" height="52" rx="1.5" stroke="#10162F"/>
<defs>
<clipPath id="clip0_52_2107">
<rect width="18" height="18" fill="white" transform="translate(23.4995 17.5)"/>
</clipPath>
</defs>
</svg>
