<svg width="65" height="53" viewBox="0 0 65 53" fill="none" xmlns="http://www.w3.org/2000/svg">
<rect x="0.499512" y="0.5" width="64" height="52" rx="1.5" fill="white"/>
<g clip-path="url(#clip0_52_2098)">
<path fill-rule="evenodd" clip-rule="evenodd" d="M32.4995 20.98C34.1895 20.98 35.3295 21.71 35.9795 22.32L38.5195 19.84C36.9595 18.39 34.9295 17.5 32.4995 17.5C28.9795 17.5 25.9395 19.52 24.4595 22.46L27.3695 24.72C28.0995 22.55 30.1195 20.98 32.4995 20.98Z" fill="#EA4335"/>
<path fill-rule="evenodd" clip-rule="evenodd" d="M41.1395 26.7C41.1395 25.96 41.0795 25.42 40.9495 24.86L32.4995 24.86L32.4995 28.2L37.4595 28.2C37.3595 29.03 36.8195 30.28 35.6195 31.12L38.4595 33.32C40.1595 31.75 41.1395 29.44 41.1395 26.7Z" fill="#4285F4"/>
<path fill-rule="evenodd" clip-rule="evenodd" d="M27.3795 28.28C27.1829 27.7071 27.0815 27.1058 27.0795 26.5C27.0795 25.88 27.1895 25.28 27.3695 24.72L24.4595 22.46C23.8293 23.7135 23.5005 25.097 23.4995 26.5C23.4995 27.95 23.8495 29.32 24.4595 30.54L27.3795 28.28Z" fill="#FBBC05"/>
<path fill-rule="evenodd" clip-rule="evenodd" d="M32.4995 35.5C34.9295 35.5 36.9695 34.7 38.4595 33.32L35.6195 31.12C34.8595 31.65 33.8395 32.02 32.4995 32.02C30.1195 32.02 28.0995 30.45 27.3795 28.28L24.4695 30.54C25.9495 33.48 28.9795 35.5 32.4995 35.5Z" fill="#34A853"/>
</g>
<rect x="0.499512" y="0.5" width="64" height="52" rx="1.5" stroke="#10162F"/>
<defs>
<clipPath id="clip0_52_2098">
<rect width="18" height="18" fill="white" transform="translate(23.4995 17.5)"/>
</clipPath>
</defs>
</svg>
