<svg width="65" height="53" viewBox="0 0 65 53" fill="none" xmlns="http://www.w3.org/2000/svg">
<rect x="0.499512" y="0.5" width="64" height="52" rx="1.5" fill="white"/>
<g clip-path="url(#clip0_52_2094)">
<path d="M39.6995 17.5L25.2995 17.5C24.3095 17.5 23.4995 18.31 23.4995 19.3L23.4995 33.7C23.4995 34.69 24.3095 35.5 25.2995 35.5L39.6995 35.5C40.6895 35.5 41.4995 34.69 41.4995 33.7L41.4995 19.3C41.4995 18.31 40.6895 17.5 39.6995 17.5ZM28.8995 32.8L26.1995 32.8L26.1995 24.7L28.8995 24.7L28.8995 32.8ZM27.5495 23.17C26.6495 23.17 25.9295 22.45 25.9295 21.55C25.9295 20.65 26.6495 19.93 27.5495 19.93C28.4495 19.93 29.1695 20.65 29.1695 21.55C29.1695 22.45 28.4495 23.17 27.5495 23.17ZM38.7995 32.8L36.0995 32.8L36.0995 28.03C36.0995 27.31 35.4695 26.68 34.7495 26.68C34.0295 26.68 33.3995 27.31 33.3995 28.03L33.3995 32.8L30.6995 32.8L30.6995 24.7L33.3995 24.7L33.3995 25.78C33.8495 25.06 34.8395 24.52 35.6495 24.52C37.3595 24.52 38.7995 25.96 38.7995 27.67L38.7995 32.8Z" fill="#0E76A8"/>
</g>
<rect x="0.499512" y="0.5" width="64" height="52" rx="1.5" stroke="#10162F"/>
<defs>
<clipPath id="clip0_52_2094">
<rect width="18" height="18" fill="white" transform="translate(23.4995 17.5)"/>
</clipPath>
</defs>
</svg>
