<svg width="65" height="53" viewBox="0 0 65 53" fill="none" xmlns="http://www.w3.org/2000/svg">
<rect x="0.499512" y="0.5" width="64" height="52" rx="1.5" fill="white"/>
<g clip-path="url(#clip0_52_2111)">
<path fill-rule="evenodd" clip-rule="evenodd" d="M32.4995 17.5C27.5265 17.5 23.4995 21.53 23.4995 26.5C23.4993 28.3891 24.0936 30.2303 25.1981 31.7629C26.3026 33.2955 27.8614 34.4416 29.6535 35.039C30.1035 35.123 30.2685 34.845 30.2685 34.606C30.2685 34.392 30.2605 33.826 30.2575 33.076C27.7535 33.619 27.2255 31.868 27.2255 31.868C26.8155 30.829 26.2245 30.552 26.2245 30.552C25.4085 29.994 26.2875 30.006 26.2875 30.006C27.1905 30.069 27.6655 30.932 27.6655 30.932C28.4685 32.308 29.7725 31.912 30.2865 31.681C30.3675 31.099 30.5995 30.701 30.8565 30.477C28.8575 30.252 26.7575 29.477 26.7575 26.03C26.7575 25.048 27.1065 24.244 27.6835 23.614C27.5825 23.387 27.2785 22.473 27.7625 21.233C27.7625 21.233 28.5155 20.991 30.2375 22.155C30.9709 21.9554 31.7274 21.8532 32.4875 21.851C33.2476 21.8532 34.0041 21.9554 34.7375 22.155C36.4475 20.991 37.2005 21.233 37.2005 21.233C37.6845 22.473 37.3805 23.387 37.2905 23.614C37.8645 24.244 38.2135 25.048 38.2135 26.03C38.2135 29.487 36.1095 30.249 34.1075 30.47C34.4225 30.74 34.7145 31.291 34.7145 32.135C34.7145 33.339 34.7035 34.306 34.7035 34.599C34.7035 34.835 34.8605 35.116 35.3225 35.026C37.1195 34.4375 38.6845 33.2961 39.7939 31.7649C40.9032 30.2336 41.5002 28.3909 41.4995 26.5C41.4995 24.1131 40.5513 21.8239 38.8635 20.136C37.1756 18.4482 34.8865 17.5 32.4995 17.5Z" fill="black"/>
</g>
<rect x="0.499512" y="0.5" width="64" height="52" rx="1.5" stroke="#10162F"/>
<defs>
<clipPath id="clip0_52_2111">
<rect width="18" height="18" fill="white" transform="translate(23.4995 17.5)"/>
</clipPath>
</defs>
</svg>
