<svg width="65" height="54" viewBox="0 0 65 54" fill="none" xmlns="http://www.w3.org/2000/svg">
<rect x="0.5" y="1.28" width="64" height="52" rx="1.5" fill="white"/>
<g clip-path="url(#clip0_5_247)">
<path fill-rule="evenodd" clip-rule="evenodd" d="M41.5 19.28V35.28C41.5 35.78 41.1 36.28 40.5 36.28H35.9V29.28H38.2L38.5 26.58H35.8V24.88C35.8 24.08 36 23.58 37.2 23.58H38.6V21.08C38.4 21.08 37.5 20.98 36.5 20.98C34.5 20.98 33.1 22.28 33.1 24.58V26.58H30.8V29.28H33.1V36.28H24.5C24 36.28 23.5 35.88 23.5 35.28V19.28C23.5 18.78 23.9 18.28 24.5 18.28H40.5C41.1 18.28 41.5 18.68 41.5 19.28Z" fill="#3B5998"/>
</g>
<rect x="0.5" y="1.28" width="64" height="52" rx="1.5" stroke="#10162F"/>
<defs>
<clipPath id="clip0_5_247">
<rect width="18" height="18" fill="white" transform="translate(23.5 18.28)"/>
</clipPath>
</defs>
</svg>
