<svg width="178" height="29" viewBox="0 0 178 29" fill="none" xmlns="http://www.w3.org/2000/svg">
<ellipse cx="17.2664" cy="14.752" rx="16.765" ry="14" fill="#1E293B"/>
<path d="M24.6993 11.7351C24.1976 11.9213 23.6679 12.0377 23.1104 12.1075C23.6679 11.8282 24.1139 11.3859 24.3091 10.8505C23.7794 11.1065 23.194 11.2928 22.5528 11.4091C22.0511 10.9668 21.3263 10.6875 20.5457 10.6875C19.0404 10.6875 17.8138 11.7118 17.8138 12.9688C17.8138 13.1551 17.8417 13.318 17.8975 13.481C15.6395 13.3879 13.6045 12.48 12.2385 11.0832C12.0155 11.4324 11.8761 11.8049 11.8761 12.2239C11.8761 13.0154 12.35 13.7138 13.1027 14.1328C12.6567 14.1095 12.2385 14.0164 11.8483 13.8534L11.8483 13.8767C11.8483 14.9941 12.7961 15.9253 14.0505 16.1348C13.8275 16.1813 13.5766 16.2046 13.3257 16.2046C13.1585 16.2046 12.9633 16.1813 12.7961 16.1581C13.1585 17.0659 14.162 17.741 15.3607 17.741C14.4129 18.3463 13.2421 18.7188 11.9598 18.7188C11.7368 18.7188 11.5137 18.7188 11.3186 18.6955C12.5452 19.3473 13.9669 19.7198 15.528 19.7198C20.5736 19.7198 23.3334 16.2279 23.3334 13.2016C23.3334 13.1085 23.3334 12.9921 23.3334 12.899C23.863 12.5964 24.3369 12.2006 24.6993 11.7351Z" fill="white"/>
<ellipse cx="65.1664" cy="14.752" rx="16.765" ry="14" fill="white"/>
<path d="M63.6201 21.0558L63.6201 15.5022L61.3821 15.5022L61.3821 13.3379L63.6201 13.3379L63.6201 11.7418C63.6201 9.88947 64.9748 8.88086 66.9535 8.88086C67.9014 8.88086 68.716 8.93979 68.9534 8.96613L68.9534 10.9019L67.581 10.9024C66.5049 10.9024 66.2965 11.3294 66.2965 11.9561L66.2965 13.3379L68.863 13.3379L68.5288 15.5022L66.2965 15.5022L66.2965 21.0558L63.6201 21.0558Z" fill="white"/>
<ellipse cx="113.066" cy="14.752" rx="16.765" ry="14" fill="#1E293B"/>
<path d="M113.067 9.19916C115.233 9.19916 115.49 9.20593 116.345 9.23852C116.86 9.24377 117.369 9.32266 117.852 9.47174C118.202 9.58443 118.52 9.75706 118.785 9.97851C119.05 10.2 119.257 10.4653 119.392 10.7575C119.57 11.1605 119.665 11.586 119.671 12.0156C119.71 12.7301 119.718 12.9443 119.718 14.753C119.718 16.5617 119.71 16.7759 119.671 17.4904C119.665 17.9201 119.57 18.3456 119.392 18.7485C119.257 19.0407 119.05 19.3061 118.785 19.5275C118.52 19.749 118.202 19.9216 117.852 20.0343C117.369 20.1834 116.86 20.2623 116.345 20.2675C115.49 20.2998 115.234 20.3069 113.067 20.3069C110.901 20.3069 110.645 20.3001 109.789 20.2675C109.275 20.2623 108.765 20.1834 108.283 20.0343C107.933 19.9216 107.615 19.749 107.35 19.5275C107.085 19.3061 106.878 19.0407 106.743 18.7485C106.564 18.3456 106.47 17.9201 106.464 17.4904C106.425 16.7759 106.417 16.5617 106.417 14.753C106.417 12.9443 106.425 12.7301 106.464 12.0156C106.47 11.586 106.564 11.1605 106.743 10.7575C106.878 10.4653 107.085 10.2 107.35 9.97851C107.615 9.75706 107.933 9.58443 108.283 9.47174C108.765 9.32266 109.275 9.24377 109.789 9.23852C110.645 9.20626 110.901 9.19916 113.067 9.19916V9.19916ZM113.067 7.97852C110.865 7.97852 110.588 7.98626 109.723 8.01916C109.05 8.03034 108.383 8.1368 107.753 8.334C107.212 8.50421 106.722 8.77096 106.317 9.11561C105.904 9.4538 105.584 9.86322 105.38 10.3153C105.144 10.8419 105.016 11.3982 105.003 11.9604C104.964 12.6824 104.955 12.914 104.955 14.7527C104.955 16.5914 104.964 16.823 105.004 17.5456C105.017 18.1079 105.145 18.6641 105.381 19.1908C105.585 19.6428 105.904 20.0522 106.317 20.3904C106.722 20.7352 107.212 21.0019 107.753 21.1721C108.384 21.3693 109.05 21.4757 109.724 21.4869C110.589 21.5192 110.865 21.5275 113.068 21.5275C115.271 21.5275 115.547 21.5198 116.413 21.4869C117.086 21.4757 117.752 21.3693 118.383 21.1721C118.921 20.9977 119.411 20.7313 119.819 20.3901C120.227 20.0488 120.546 19.6401 120.755 19.1901C120.991 18.6635 121.118 18.1072 121.132 17.545C121.17 16.823 121.179 16.5914 121.179 14.7527C121.179 12.914 121.17 12.6824 121.131 11.9598C121.117 11.3976 120.99 10.8413 120.754 10.3146C120.55 9.86264 120.231 9.45322 119.818 9.11497C119.413 8.77023 118.922 8.50349 118.381 8.33335C117.75 8.13615 117.084 8.0297 116.411 8.01852C115.547 7.98626 115.269 7.97852 113.067 7.97852Z" fill="white"/>
<path d="M113.069 11.2754C112.245 11.2754 111.44 11.4794 110.755 11.8617C110.07 12.2439 109.536 12.7872 109.22 13.4229C108.905 14.0585 108.823 14.758 108.983 15.4328C109.144 16.1076 109.541 16.7274 110.123 17.2139C110.706 17.7004 111.448 18.0317 112.256 18.166C113.064 18.3002 113.902 18.2313 114.663 17.968C115.424 17.7047 116.075 17.2588 116.533 16.6868C116.99 16.1147 117.235 15.4421 117.235 14.7541C117.235 13.8315 116.796 12.9467 116.015 12.2943C115.233 11.6419 114.174 11.2754 113.069 11.2754ZM113.069 17.0122C112.534 17.0122 112.011 16.8797 111.567 16.6316C111.122 16.3835 110.775 16.0308 110.571 15.6182C110.366 15.2056 110.313 14.7516 110.417 14.3136C110.521 13.8756 110.779 13.4732 111.157 13.1574C111.535 12.8416 112.017 12.6266 112.541 12.5394C113.066 12.4523 113.61 12.497 114.104 12.6679C114.598 12.8388 115.02 13.1283 115.317 13.4996C115.614 13.8709 115.773 14.3075 115.773 14.7541C115.773 15.353 115.488 15.9273 114.981 16.3508C114.474 16.7743 113.786 17.0122 113.069 17.0122V17.0122Z" fill="white"/>
<path d="M117.398 11.95C117.936 11.95 118.372 11.5861 118.372 11.1371C118.372 10.6882 117.936 10.3242 117.398 10.3242C116.861 10.3242 116.425 10.6882 116.425 11.1371C116.425 11.5861 116.861 11.95 117.398 11.95Z" fill="white"/>
<ellipse cx="160.966" cy="14.752" rx="16.765" ry="14" fill="#1E293B"/>
<path fill-rule="evenodd" clip-rule="evenodd" d="M161.695 7.97852C157.395 7.97852 153.936 10.8675 153.936 14.4584C153.936 17.3204 156.167 19.7503 159.238 20.6143C159.626 20.6683 159.756 20.4793 159.756 20.2903C159.756 20.1283 159.756 19.7233 159.756 19.1833C157.589 19.5883 157.137 18.3193 157.137 18.3193C156.781 17.5634 156.264 17.3744 156.264 17.3744C155.552 16.9694 156.328 16.9694 156.328 16.9694C157.104 17.0234 157.525 17.6444 157.525 17.6444C158.204 18.6433 159.335 18.3463 159.788 18.1843C159.853 17.7524 160.047 17.4824 160.273 17.3204C158.559 17.1584 156.749 16.5914 156.749 14.1074C156.749 13.4054 157.04 12.8114 157.557 12.3794C157.492 12.2174 157.201 11.5695 157.622 10.6515C157.622 10.6515 158.268 10.4895 159.756 11.3265C160.37 11.1915 161.049 11.1105 161.695 11.1105C162.342 11.1105 163.021 11.1915 163.635 11.3265C165.123 10.4895 165.769 10.6515 165.769 10.6515C166.19 11.5425 165.931 12.1904 165.834 12.3794C166.319 12.8384 166.642 13.4054 166.642 14.1074C166.642 16.5914 164.832 17.1314 163.086 17.2934C163.377 17.4824 163.603 17.8874 163.603 18.4813C163.603 19.3453 163.603 20.0473 163.603 20.2633C163.603 20.4253 163.732 20.6413 164.153 20.5873C167.224 19.7503 169.455 17.3204 169.455 14.4584C169.455 10.8675 165.996 7.97852 161.695 7.97852Z" fill="white"/>
</svg>
