<svg width="179" height="29" viewBox="0 0 179 29" fill="none" xmlns="http://www.w3.org/2000/svg">
<ellipse cx="17.3864" cy="14.752" rx="16.8" ry="14" fill="#1E293B"/>
<path d="M24.835 11.7351C24.3322 11.9213 23.8014 12.0377 23.2427 12.1075C23.8014 11.8282 24.2483 11.3859 24.4439 10.8505C23.9131 11.1065 23.3265 11.2928 22.684 11.4091C22.1812 10.9668 21.4549 10.6875 20.6727 10.6875C19.1642 10.6875 17.9351 11.7118 17.9351 12.9688C17.9351 13.1551 17.963 13.318 18.0189 13.481C15.7562 13.3879 13.7169 12.48 12.3481 11.0832C12.1246 11.4324 11.985 11.8049 11.985 12.2239C11.985 13.0154 12.4599 13.7138 13.2141 14.1328C12.7671 14.1095 12.3481 14.0164 11.957 13.8534V13.8767C11.957 14.9941 12.9068 15.9253 14.1639 16.1348C13.9404 16.1813 13.689 16.2046 13.4376 16.2046C13.27 16.2046 13.0744 16.1813 12.9068 16.1581C13.27 17.066 14.2756 17.741 15.4768 17.741C14.527 18.3463 13.3538 18.7188 12.0688 18.7188C11.8453 18.7188 11.6218 18.7188 11.4263 18.6955C12.6554 19.3473 14.0801 19.7198 15.6444 19.7198C20.7006 19.7198 23.4662 16.2279 23.4662 13.2016C23.4662 13.1085 23.4662 12.9921 23.4662 12.899C23.9969 12.5964 24.4718 12.2006 24.835 11.7351Z" fill="white"/>
<ellipse cx="65.3864" cy="14.752" rx="16.8" ry="14" fill="white"/>
<path d="M63.8369 21.0558V15.5022H61.5942V13.3379H63.8369V11.7418C63.8369 9.88947 65.1945 8.88086 67.1773 8.88086C68.1271 8.88086 68.9434 8.93979 69.1813 8.96613V10.9019L67.8061 10.9024C66.7277 10.9024 66.5189 11.3294 66.5189 11.9561V13.3379H69.0908L68.7559 15.5022H66.5189V21.0558H63.8369Z" fill="white"/>
<ellipse cx="113.386" cy="14.752" rx="16.8" ry="14" fill="#1E293B"/>
<path d="M113.387 9.19916C115.558 9.19916 115.815 9.20593 116.672 9.23852C117.188 9.24377 117.698 9.32266 118.182 9.47174C118.533 9.58443 118.851 9.75706 119.117 9.97852C119.382 10.2 119.59 10.4653 119.725 10.7575C119.904 11.1605 119.998 11.586 120.005 12.0156C120.043 12.7301 120.052 12.9443 120.052 14.753C120.052 16.5617 120.044 16.7759 120.005 17.4904C119.998 17.9201 119.904 18.3456 119.725 18.7485C119.59 19.0407 119.382 19.3061 119.117 19.5275C118.851 19.749 118.533 19.9216 118.182 20.0343C117.698 20.1834 117.188 20.2623 116.672 20.2675C115.815 20.2998 115.558 20.3069 113.387 20.3069C111.216 20.3069 110.959 20.3001 110.102 20.2675C109.587 20.2623 109.076 20.1834 108.593 20.0343C108.242 19.9216 107.924 19.749 107.658 19.5275C107.392 19.3061 107.185 19.0407 107.05 18.7485C106.871 18.3456 106.776 17.9201 106.77 17.4904C106.731 16.7759 106.723 16.5617 106.723 14.753C106.723 12.9443 106.731 12.7301 106.77 12.0156C106.776 11.586 106.871 11.1605 107.05 10.7575C107.185 10.4653 107.392 10.2 107.658 9.97852C107.924 9.75706 108.242 9.58443 108.593 9.47174C109.076 9.32266 109.587 9.24377 110.102 9.23852C110.96 9.20626 111.217 9.19916 113.387 9.19916V9.19916ZM113.387 7.97852C111.181 7.97852 110.903 7.98626 110.036 8.01916C109.361 8.03034 108.694 8.1368 108.062 8.334C107.52 8.50421 107.028 8.77096 106.623 9.11561C106.209 9.4538 105.888 9.86322 105.684 10.3153C105.447 10.8419 105.32 11.3982 105.306 11.9605C105.268 12.6824 105.258 12.914 105.258 14.7527C105.258 16.5914 105.268 16.823 105.307 17.5456C105.32 18.1079 105.448 18.6641 105.685 19.1908C105.889 19.6428 106.209 20.0522 106.623 20.3904C107.029 20.7352 107.52 21.0019 108.062 21.1721C108.694 21.3693 109.362 21.4757 110.037 21.4869C110.904 21.5192 111.18 21.5275 113.388 21.5275C115.596 21.5275 115.872 21.5198 116.74 21.4869C117.414 21.4757 118.082 21.3693 118.714 21.1721C119.254 20.9977 119.744 20.7313 120.153 20.3901C120.562 20.0488 120.882 19.6401 121.091 19.1901C121.327 18.6635 121.455 18.1072 121.468 17.545C121.507 16.823 121.516 16.5914 121.516 14.7527C121.516 12.914 121.507 12.6824 121.468 11.9598C121.454 11.3976 121.326 10.8413 121.09 10.3146C120.886 9.86264 120.566 9.45322 120.152 9.11497C119.746 8.77023 119.255 8.50349 118.712 8.33335C118.08 8.13615 117.413 8.0297 116.738 8.01852C115.872 7.98626 115.594 7.97852 113.387 7.97852Z" fill="white"/>
<path d="M113.389 11.2754C112.563 11.2754 111.756 11.4794 111.07 11.8617C110.383 12.2439 109.848 12.7872 109.532 13.4229C109.216 14.0585 109.133 14.758 109.295 15.4328C109.456 16.1076 109.853 16.7274 110.437 17.2139C111.021 17.7004 111.765 18.0317 112.574 18.166C113.384 18.3002 114.224 18.2313 114.986 17.968C115.749 17.7047 116.401 17.2588 116.86 16.6868C117.318 16.1147 117.563 15.4421 117.563 14.7541C117.563 13.8315 117.123 12.9467 116.341 12.2943C115.558 11.6419 114.496 11.2754 113.389 11.2754ZM113.389 17.0122C112.853 17.0122 112.329 16.8797 111.883 16.6316C111.438 16.3835 111.09 16.0308 110.885 15.6182C110.68 15.2056 110.627 14.7516 110.731 14.3136C110.836 13.8756 111.094 13.4732 111.473 13.1574C111.852 12.8416 112.335 12.6266 112.86 12.5394C113.386 12.4523 113.931 12.497 114.426 12.6679C114.921 12.8388 115.344 13.1282 115.642 13.4996C115.94 13.8709 116.098 14.3075 116.098 14.7541C116.098 15.353 115.813 15.9273 115.305 16.3508C114.797 16.7743 114.107 17.0122 113.389 17.0122V17.0122Z" fill="white"/>
<path d="M117.727 11.95C118.266 11.95 118.703 11.5861 118.703 11.1371C118.703 10.6882 118.266 10.3242 117.727 10.3242C117.189 10.3242 116.752 10.6882 116.752 11.1371C116.752 11.5861 117.189 11.95 117.727 11.95Z" fill="white"/>
<ellipse cx="161.386" cy="14.752" rx="16.8" ry="14" fill="#1E293B"/>
<path fill-rule="evenodd" clip-rule="evenodd" d="M162.117 7.97852C157.808 7.97852 154.341 10.8675 154.341 14.4584C154.341 17.3204 156.577 19.7503 159.655 20.6143C160.044 20.6683 160.173 20.4793 160.173 20.2903C160.173 20.1283 160.173 19.7233 160.173 19.1833C158.002 19.5883 157.549 18.3194 157.549 18.3194C157.192 17.5634 156.674 17.3744 156.674 17.3744C155.961 16.9694 156.739 16.9694 156.739 16.9694C157.516 17.0234 157.938 17.6444 157.938 17.6444C158.618 18.6433 159.752 18.3463 160.206 18.1844C160.27 17.7524 160.465 17.4824 160.692 17.3204C158.974 17.1584 157.16 16.5914 157.16 14.1074C157.16 13.4054 157.452 12.8114 157.97 12.3794C157.905 12.2174 157.614 11.5695 158.035 10.6515C158.035 10.6515 158.683 10.4895 160.173 11.3265C160.789 11.1915 161.469 11.1105 162.117 11.1105C162.765 11.1105 163.446 11.1915 164.061 11.3265C165.552 10.4895 166.2 10.6515 166.2 10.6515C166.621 11.5425 166.362 12.1904 166.264 12.3794C166.75 12.8384 167.074 13.4054 167.074 14.1074C167.074 16.5914 165.26 17.1314 163.51 17.2934C163.802 17.4824 164.029 17.8874 164.029 18.4813C164.029 19.3453 164.029 20.0473 164.029 20.2633C164.029 20.4253 164.158 20.6413 164.58 20.5873C167.657 19.7503 169.893 17.3204 169.893 14.4584C169.893 10.8675 166.426 7.97852 162.117 7.97852Z" fill="white"/>
</svg>
