<svg width="16" height="16" viewBox="0 0 16 16" fill="none" xmlns="http://www.w3.org/2000/svg">
<g clip-path="url(#clip0_52_2080)">
<path fill-rule="evenodd" clip-rule="evenodd" d="M13.5756 6.90934C13.5756 8.78534 12.5783 10.6133 10.9383 12.3447C10.2229 13.0968 9.44056 13.7823 8.60092 14.3927C8.49358 14.47 8.41425 14.5247 8.36958 14.5547C8.26003 14.6278 8.13128 14.6668 7.99958 14.6668C7.86789 14.6668 7.73914 14.6278 7.62958 14.5547C7.55157 14.502 7.47444 14.448 7.39825 14.3927C6.55863 13.7826 5.77629 13.0973 5.06092 12.3453C3.42092 10.6133 2.42358 8.78534 2.42358 6.90934C2.42358 5.43049 3.01105 4.01221 4.05676 2.96651C5.10246 1.92081 6.52074 1.33334 7.99958 1.33334C9.47843 1.33334 10.8967 1.92081 11.9424 2.96651C12.9881 4.01221 13.5756 5.43049 13.5756 6.90934ZM8.35158 12.9073C8.92479 12.4521 9.46565 11.9576 9.97025 11.4273C11.3983 9.92067 12.2423 8.374 12.2423 6.90934C12.2423 5.78411 11.7953 4.70497 10.9996 3.90932C10.2039 3.11366 9.12481 2.66667 7.99958 2.66667C6.87436 2.66667 5.79522 3.11366 4.99957 3.90932C4.20391 4.70497 3.75692 5.78411 3.75692 6.90934C3.75692 8.37334 4.60092 9.92067 6.02892 11.428C6.63585 12.0657 7.29503 12.6515 7.99958 13.1793C8.11025 13.0967 8.22758 13.006 8.35158 12.9073ZM7.99958 8.60667C7.73694 8.60667 7.47687 8.55494 7.23422 8.45443C6.99157 8.35392 6.77109 8.2066 6.58537 8.02088C6.39965 7.83517 6.25233 7.61469 6.15183 7.37204C6.05132 7.12938 5.99958 6.86931 5.99958 6.60667C5.99958 6.34403 6.05132 6.08395 6.15183 5.8413C6.25233 5.59865 6.39965 5.37817 6.58537 5.19246C6.77109 5.00674 6.99157 4.85942 7.23422 4.75891C7.47687 4.6584 7.73694 4.60667 7.99958 4.60667C8.53002 4.60667 9.03873 4.81738 9.4138 5.19246C9.78887 5.56753 9.99958 6.07624 9.99958 6.60667C9.99958 7.1371 9.78887 7.64581 9.4138 8.02088C9.03873 8.39596 8.53002 8.60667 7.99958 8.60667ZM7.99958 7.27334C8.1764 7.27334 8.34596 7.2031 8.47099 7.07807C8.59601 6.95305 8.66625 6.78348 8.66625 6.60667C8.66625 6.42986 8.59601 6.26029 8.47099 6.13526C8.34596 6.01024 8.1764 5.94 7.99958 5.94C7.82277 5.94 7.6532 6.01024 7.52818 6.13526C7.40316 6.26029 7.33292 6.42986 7.33292 6.60667C7.33292 6.78348 7.40316 6.95305 7.52818 7.07807C7.6532 7.2031 7.82277 7.27334 7.99958 7.27334Z" fill="#262626" fill-opacity="0.75"/>
</g>
<defs>
<clipPath id="clip0_52_2080">
<rect width="16" height="16" fill="white" transform="translate(-0.000488281)"/>
</clipPath>
</defs>
</svg>
