<svg width="16" height="16" viewBox="0 0 16 16" fill="none" xmlns="http://www.w3.org/2000/svg">
<g clip-path="url(#clip0_52_2087)">
<path d="M8.97607 2.57467C8.67824 2.3995 8.3401 2.30449 7.99462 2.29888C7.64914 2.29327 7.3081 2.37726 7.00474 2.54267L1.73941 5.41467C1.63423 5.47201 1.54644 5.55663 1.48528 5.65963C1.42412 5.76263 1.39185 5.88021 1.39185 6C1.39185 6.11979 1.42412 6.23737 1.48528 6.34038C1.54644 6.44338 1.63423 6.528 1.73941 6.58534L3.33274 7.45334L3.33274 11.6333C3.33274 12.0267 3.50607 12.4 3.82607 12.6273C4.63674 13.2007 6.32607 14.2333 7.99941 14.2333C9.67274 14.2333 11.3621 13.2013 12.1727 12.6273C12.4927 12.4007 12.6661 12.0267 12.6661 11.6333L12.6661 7.45334L13.5994 6.8L13.5994 9.93334C13.5994 10.0121 13.6149 10.0902 13.6451 10.1629C13.6752 10.2357 13.7194 10.3019 13.7751 10.3576C13.8309 10.4133 13.897 10.4575 13.9698 10.4877C14.0426 10.5178 14.1206 10.5333 14.1994 10.5333C14.2782 10.5333 14.3562 10.5178 14.429 10.4877C14.5018 10.4575 14.568 10.4133 14.6237 10.3576C14.6794 10.3019 14.7236 10.2357 14.7537 10.1629C14.7839 10.0902 14.7994 10.0121 14.7994 9.93334L14.7994 6.38134C14.7994 6.26522 14.7691 6.15112 14.7114 6.05032C14.6538 5.94953 14.5708 5.86554 14.4707 5.80667L8.97607 2.57467ZM12.5461 6L8.63807 8.132C8.44217 8.2389 8.22257 8.29492 7.99941 8.29492C7.77624 8.29492 7.55664 8.2389 7.36074 8.132L3.45274 6L7.36074 3.868C7.55664 3.76111 7.77624 3.70509 7.99941 3.70509C8.22257 3.70509 8.44217 3.76111 8.63807 3.868L12.5461 6ZM11.3327 11.1247C11.334 11.2282 11.3095 11.3304 11.2614 11.4221C11.2133 11.5138 11.1432 11.5921 11.0574 11.65C10.4874 12.0267 9.13607 12.8327 7.99941 12.8327C6.86274 12.8327 5.51141 12.0267 4.94141 11.65C4.85553 11.5922 4.7854 11.5138 4.73733 11.4221C4.68927 11.3304 4.66478 11.2282 4.66607 11.1247L4.66607 8.18L7.04074 9.47667C7.33475 9.63725 7.6644 9.7214 7.99941 9.7214C8.33441 9.7214 8.66406 9.63725 8.95807 9.47667L11.3327 8.18L11.3327 11.1247Z" fill="#262626" fill-opacity="0.75"/>
</g>
<defs>
<clipPath id="clip0_52_2087">
<rect width="16" height="16" fill="white" transform="translate(-0.000488281)"/>
</clipPath>
</defs>
</svg>
