<svg width="15" height="16" viewBox="0 0 15 16" fill="none" xmlns="http://www.w3.org/2000/svg">
<g clip-path="url(#clip0_52_3802)">
<path fill-rule="evenodd" clip-rule="evenodd" d="M4.81638 8.18313L7.4995 10.8663L10.1826 8.18313C10.3005 8.06928 10.4584 8.00628 10.6223 8.00771C10.7861 8.00913 10.9429 8.07486 11.0588 8.19074C11.1746 8.30662 11.2404 8.46338 11.2418 8.62725C11.2432 8.79113 11.1802 8.949 11.0664 9.06688L7.94138 12.1919C7.82417 12.309 7.66523 12.3749 7.4995 12.3749C7.33377 12.3749 7.17483 12.309 7.05763 12.1919L3.93263 9.06688C3.87293 9.00923 3.82532 8.94026 3.79256 8.86401C3.75981 8.78776 3.74257 8.70574 3.74184 8.62276C3.74112 8.53977 3.75694 8.45747 3.78836 8.38066C3.81979 8.30385 3.8662 8.23407 3.92488 8.17538C3.98356 8.1167 4.05334 8.07029 4.13016 8.03887C4.20697 8.00744 4.28927 7.99163 4.37225 7.99235C4.45524 7.99307 4.53725 8.01031 4.6135 8.04307C4.68976 8.07582 4.75872 8.12344 4.81638 8.18313ZM7.4995 6.49126L10.1826 3.80813C10.2403 3.74844 10.3092 3.70082 10.3855 3.66807C10.4618 3.63531 10.5438 3.61807 10.6268 3.61735C10.7097 3.61663 10.792 3.63244 10.8688 3.66387C10.9457 3.69529 11.0154 3.7417 11.0741 3.80038C11.1328 3.85907 11.1792 3.92885 11.2106 4.00566C11.2421 4.08247 11.2579 4.16477 11.2572 4.24776C11.2564 4.33074 11.2392 4.41276 11.2064 4.48901C11.1737 4.56526 11.1261 4.63423 11.0664 4.69188L7.94138 7.81688C7.82417 7.93405 7.66523 7.99987 7.4995 7.99987C7.33377 7.99987 7.17483 7.93405 7.05763 7.81688L3.93263 4.69188C3.81878 4.574 3.75578 4.41613 3.75721 4.25225C3.75863 4.08838 3.82436 3.93162 3.94024 3.81574C4.05612 3.69986 4.21288 3.63413 4.37675 3.63271C4.54062 3.63128 4.6985 3.69428 4.81638 3.80813L7.4995 6.49126Z" fill="#3C3C43" fill-opacity="0.6"/>
</g>
<defs>
<clipPath id="clip0_52_3802">
<rect width="15" height="15" fill="white" transform="translate(-0.000488281 0.5)"/>
</clipPath>
</defs>
</svg>
