<svg width="14" height="14" viewBox="0 0 14 14" fill="none" xmlns="http://www.w3.org/2000/svg">
<g clip-path="url(#clip0_5_213)">
<mask id="mask0_5_213" style="mask-type:luminance" maskUnits="userSpaceOnUse" x="0" y="0" width="14" height="14">
<path d="M6.7899 7.19988V10.3999M0.847046 7.19988C0.847046 8.77602 1.47317 10.2876 2.58767 11.4021C3.70217 12.5166 5.21376 13.1427 6.7899 13.1427C8.36605 13.1427 9.87764 12.5166 10.9921 11.4021C12.1066 10.2876 12.7328 8.77602 12.7328 7.19988C12.7328 5.62373 12.1066 4.11214 10.9921 2.99764C9.87764 1.88314 8.36605 1.25702 6.7899 1.25702C5.21376 1.25702 3.70217 1.88314 2.58767 2.99764C1.47317 4.11214 0.847046 5.62373 0.847046 7.19988Z" stroke="white" stroke-width="0.914064" stroke-linecap="round" stroke-linejoin="round"/>
<path d="M6.33289 4.91415C6.33289 5.03537 6.38104 5.15162 6.46675 5.23733C6.55246 5.32304 6.66871 5.37119 6.78992 5.37119C6.91113 5.37119 7.02738 5.32304 7.11309 5.23733C7.1988 5.15162 7.24695 5.03537 7.24695 4.91415C7.24695 4.79294 7.1988 4.67669 7.11309 4.59098C7.02738 4.50527 6.91113 4.45712 6.78992 4.45712C6.66871 4.45712 6.55246 4.50527 6.46675 4.59098C6.38104 4.67669 6.33289 4.79294 6.33289 4.91415Z" stroke="white" stroke-width="0.914064" stroke-linecap="round" stroke-linejoin="round"/>
</mask>
<g mask="url(#mask0_5_213)">
<path d="M13.19 0.799988H0.390015V13.6H13.19V0.799988Z" fill="#10162F"/>
</g>
</g>
<defs>
<clipPath id="clip0_5_213">
<rect width="12.8" height="12.8" fill="white" transform="translate(0.390015 0.799988)"/>
</clipPath>
</defs>
</svg>
