<svg width="21" height="20" viewBox="0 0 21 20" fill="none" xmlns="http://www.w3.org/2000/svg">
<g clip-path="url(#clip0_52_2391)">
<path d="M13.6519 9.41083C13.8082 9.5671 13.8959 9.77902 13.8959 9.99999C13.8959 10.221 13.8082 10.4329 13.6519 10.5892L10.7353 13.5058C10.579 13.6621 10.3671 13.7498 10.1461 13.7498C9.92513 13.7498 9.71321 13.6621 9.55694 13.5058L7.89027 11.8392C7.81068 11.7623 7.74719 11.6703 7.70352 11.5687C7.65985 11.467 7.63686 11.3576 7.6359 11.247C7.63493 11.1363 7.65602 11.0266 7.69792 10.9242C7.73982 10.8218 7.8017 10.7287 7.87994 10.6505C7.95819 10.5723 8.05123 10.5104 8.15364 10.4685C8.25606 10.4266 8.36579 10.4055 8.47644 10.4065C8.58709 10.4074 8.69644 10.4304 8.79811 10.4741C8.89978 10.5178 8.99173 10.5812 9.0686 10.6608L10.1461 11.7383L12.4736 9.41083C12.6299 9.2546 12.8418 9.16684 13.0628 9.16684C13.2837 9.16684 13.4957 9.2546 13.6519 9.41083Z" fill="#007AFF"/>
<path d="M4.31287 4.16667C4.31287 3.50363 4.57626 2.86775 5.0451 2.3989C5.51394 1.93006 6.14982 1.66667 6.81287 1.66667L12.6787 1.66667C13.0535 1.66676 13.4236 1.75113 13.7614 1.91355C14.0992 2.07598 14.3962 2.31229 14.6304 2.60501L17.0987 5.68917C17.4534 6.1327 17.6465 6.68377 17.6462 7.25167L17.6462 15.8333C17.6462 16.4964 17.3828 17.1323 16.914 17.6011C16.4451 18.0699 15.8092 18.3333 15.1462 18.3333L6.81287 18.3333C6.14982 18.3333 5.51394 18.0699 5.0451 17.6011C4.57626 17.1323 4.31287 16.4964 4.31287 15.8333L4.31287 4.16667ZM6.81287 3.33334C6.59185 3.33334 6.37989 3.42114 6.22361 3.57742C6.06733 3.7337 5.97953 3.94566 5.97953 4.16667L5.97953 15.8333C5.97953 16.0544 6.06733 16.2663 6.22361 16.4226C6.37989 16.5789 6.59185 16.6667 6.81287 16.6667L15.1462 16.6667C15.3672 16.6667 15.5792 16.5789 15.7355 16.4226C15.8917 16.2663 15.9795 16.0544 15.9795 15.8333L15.9795 7.5L13.4795 7.5C13.0375 7.5 12.6136 7.32441 12.301 7.01185C11.9885 6.69929 11.8129 6.27537 11.8129 5.83334L11.8129 3.33334L6.81287 3.33334ZM13.4795 3.83334L13.4795 5.83334L15.0795 5.83334L13.4795 3.83334Z" fill="#007AFF"/>
</g>
<defs>
<clipPath id="clip0_52_2391">
<rect width="20" height="20" fill="white" transform="translate(0.979492)"/>
</clipPath>
</defs>
</svg>
