<svg width="21" height="20" viewBox="0 0 21 20" fill="none" xmlns="http://www.w3.org/2000/svg">
<g clip-path="url(#clip0_52_2709)">
<path d="M9.31287 12.8867L9.31287 9.61421C9.31275 9.49219 9.34612 9.37247 9.40936 9.2681C9.47259 9.16374 9.56326 9.07873 9.67148 9.02234C9.77969 8.96596 9.90131 8.94035 10.0231 8.94832C10.1448 8.95629 10.2621 8.99753 10.362 9.06755L12.6995 10.7042C12.7872 10.7657 12.8588 10.8474 12.9082 10.9424C12.9576 11.0374 12.9834 11.143 12.9834 11.25C12.9834 11.3571 12.9576 11.4627 12.9082 11.5577C12.8588 11.6527 12.7872 11.7344 12.6995 11.7959L10.362 13.4325C10.2621 13.5025 10.145 13.5438 10.0233 13.5518C9.90159 13.5598 9.78004 13.5342 9.67185 13.4779C9.56366 13.4217 9.47298 13.3368 9.40968 13.2325C9.34639 13.1283 9.3129 13.0087 9.31287 12.8867Z" fill="#AF52DE"/>
<path d="M6.81287 3.33329C6.59185 3.33329 6.37989 3.42109 6.22361 3.57737C6.06733 3.73365 5.97953 3.94561 5.97953 4.16663L5.97953 15.8333C5.97953 16.0543 6.06733 16.2663 6.22361 16.4225C6.37989 16.5788 6.59185 16.6666 6.81287 16.6666L15.1462 16.6666C15.3672 16.6666 15.5792 16.5788 15.7355 16.4225C15.8917 16.2663 15.9795 16.0543 15.9795 15.8333L15.9795 7.49996L13.4795 7.49996C13.0375 7.49996 12.6136 7.32436 12.301 7.0118C11.9885 6.69924 11.8129 6.27532 11.8129 5.83329L11.8129 3.33329L6.81287 3.33329ZM13.4795 3.83329L13.4795 5.83329L15.0795 5.83329L13.4795 3.83329ZM4.31287 4.16663C4.31287 3.50358 4.57626 2.8677 5.0451 2.39886C5.51394 1.93002 6.14982 1.66663 6.81287 1.66663L12.6787 1.66663C13.0535 1.66671 13.4236 1.75109 13.7614 1.91351C14.0992 2.07593 14.3962 2.31225 14.6304 2.60496L17.0987 5.68913C17.4534 6.13266 17.6465 6.68372 17.6462 7.25163L17.6462 15.8333C17.6462 16.4963 17.3828 17.1322 16.914 17.6011C16.4451 18.0699 15.8092 18.3333 15.1462 18.3333L6.81287 18.3333C6.14982 18.3333 5.51394 18.0699 5.0451 17.6011C4.57626 17.1322 4.31287 16.4963 4.31287 15.8333L4.31287 4.16663Z" fill="#AF52DE"/>
</g>
<defs>
<clipPath id="clip0_52_2709">
<rect width="20" height="20" fill="white" transform="translate(0.979492)"/>
</clipPath>
</defs>
</svg>
