<svg width="21" height="20" viewBox="0 0 21 20" fill="none" xmlns="http://www.w3.org/2000/svg">
<g clip-path="url(#clip0_52_2573)">
<path d="M9.31287 12.8867L9.31287 9.61415C9.31275 9.49212 9.34612 9.37241 9.40936 9.26804C9.47259 9.16368 9.56326 9.07867 9.67148 9.02228C9.77969 8.96589 9.90131 8.94029 10.0231 8.94826C10.1448 8.95623 10.2621 8.99747 10.362 9.06749L12.6995 10.7042C12.7872 10.7656 12.8588 10.8473 12.9082 10.9424C12.9576 11.0374 12.9834 11.1429 12.9834 11.25C12.9834 11.3571 12.9576 11.4626 12.9082 11.5576C12.8588 11.6526 12.7872 11.7343 12.6995 11.7958L10.362 13.4325C10.2621 13.5025 10.145 13.5437 10.0233 13.5517C9.90159 13.5597 9.78004 13.5342 9.67185 13.4779C9.56366 13.4216 9.47298 13.3367 9.40968 13.2325C9.34639 13.1282 9.3129 13.0086 9.31287 12.8867Z" fill="#AF52DE"/>
<path d="M6.81287 3.33335C6.59185 3.33335 6.37989 3.42115 6.22361 3.57743C6.06733 3.73371 5.97953 3.94567 5.97953 4.16669L5.97953 15.8334C5.97953 16.0544 6.06733 16.2663 6.22361 16.4226C6.37989 16.5789 6.59185 16.6667 6.81287 16.6667L15.1462 16.6667C15.3672 16.6667 15.5792 16.5789 15.7355 16.4226C15.8917 16.2663 15.9795 16.0544 15.9795 15.8334L15.9795 7.50002L13.4795 7.50002C13.0375 7.50002 12.6136 7.32443 12.301 7.01186C11.9885 6.6993 11.8129 6.27538 11.8129 5.83335L11.8129 3.33335L6.81287 3.33335ZM13.4795 3.83335L13.4795 5.83335L15.0795 5.83335L13.4795 3.83335ZM4.31287 4.16669C4.31287 3.50365 4.57626 2.86776 5.0451 2.39892C5.51394 1.93008 6.14982 1.66669 6.81287 1.66669L12.6787 1.66669C13.0535 1.66677 13.4236 1.75115 13.7614 1.91357C14.0992 2.07599 14.3962 2.31231 14.6304 2.60502L17.0987 5.68919C17.4534 6.13272 17.6465 6.68379 17.6462 7.25169L17.6462 15.8334C17.6462 16.4964 17.3828 17.1323 16.914 17.6011C16.4451 18.07 15.8092 18.3334 15.1462 18.3334L6.81287 18.3334C6.14982 18.3334 5.51394 18.07 5.0451 17.6011C4.57626 17.1323 4.31287 16.4964 4.31287 15.8334L4.31287 4.16669Z" fill="#AF52DE"/>
</g>
<defs>
<clipPath id="clip0_52_2573">
<rect width="20" height="20" fill="white" transform="translate(0.979492)"/>
</clipPath>
</defs>
</svg>
