<svg width="21" height="20" viewBox="0 0 21 20" fill="none" xmlns="http://www.w3.org/2000/svg">
<g clip-path="url(#clip0_52_2408)">
<path d="M9.31287 12.8867L9.31287 9.61415C9.31275 9.49212 9.34612 9.37241 9.40936 9.26804C9.47259 9.16368 9.56326 9.07867 9.67148 9.02228C9.77969 8.96589 9.90131 8.94029 10.0231 8.94826C10.1448 8.95623 10.2621 8.99747 10.362 9.06749L12.6995 10.7042C12.7872 10.7656 12.8588 10.8473 12.9082 10.9424C12.9576 11.0374 12.9834 11.1429 12.9834 11.25C12.9834 11.3571 12.9576 11.4626 12.9082 11.5576C12.8588 11.6526 12.7872 11.7343 12.6995 11.7958L10.362 13.4325C10.2621 13.5025 10.145 13.5437 10.0233 13.5517C9.90159 13.5597 9.78004 13.5342 9.67185 13.4779C9.56366 13.4216 9.47298 13.3367 9.40968 13.2325C9.34639 13.1282 9.3129 13.0086 9.31287 12.8867Z" fill="#AF52DE"/>
<path d="M6.81287 3.33332C6.59185 3.33332 6.37989 3.42112 6.22361 3.5774C6.06733 3.73368 5.97953 3.94564 5.97953 4.16666L5.97953 15.8333C5.97953 16.0543 6.06733 16.2663 6.22361 16.4226C6.37989 16.5789 6.59185 16.6667 6.81287 16.6667L15.1462 16.6667C15.3672 16.6667 15.5792 16.5789 15.7355 16.4226C15.8917 16.2663 15.9795 16.0543 15.9795 15.8333L15.9795 7.49999L13.4795 7.49999C13.0375 7.49999 12.6136 7.32439 12.301 7.01183C11.9885 6.69927 11.8129 6.27535 11.8129 5.83332L11.8129 3.33332L6.81287 3.33332ZM13.4795 3.83332L13.4795 5.83332L15.0795 5.83332L13.4795 3.83332ZM4.31287 4.16666C4.31287 3.50362 4.57626 2.86773 5.0451 2.39889C5.51394 1.93005 6.14982 1.66666 6.81287 1.66666L12.6787 1.66666C13.0535 1.66674 13.4236 1.75112 13.7614 1.91354C14.0992 2.07596 14.3962 2.31228 14.6304 2.60499L17.0987 5.68916C17.4534 6.13269 17.6465 6.68376 17.6462 7.25166L17.6462 15.8333C17.6462 16.4964 17.3828 17.1322 16.914 17.6011C16.4451 18.0699 15.8092 18.3333 15.1462 18.3333L6.81287 18.3333C6.14982 18.3333 5.51394 18.0699 5.0451 17.6011C4.57626 17.1322 4.31287 16.4964 4.31287 15.8333L4.31287 4.16666Z" fill="#AF52DE"/>
</g>
<defs>
<clipPath id="clip0_52_2408">
<rect width="20" height="20" fill="white" transform="translate(0.979492)"/>
</clipPath>
</defs>
</svg>
