<svg width="21" height="20" viewBox="0 0 21 20" fill="none" xmlns="http://www.w3.org/2000/svg">
<g clip-path="url(#clip0_52_2505)">
<path d="M13.6519 9.41086C13.8082 9.56713 13.8959 9.77906 13.8959 10C13.8959 10.221 13.8082 10.4329 13.6519 10.5892L10.7353 13.5059C10.579 13.6621 10.3671 13.7498 10.1461 13.7498C9.92513 13.7498 9.71321 13.6621 9.55694 13.5059L7.89027 11.8392C7.81068 11.7623 7.74719 11.6704 7.70352 11.5687C7.65985 11.467 7.63686 11.3577 7.6359 11.247C7.63493 11.1364 7.65602 11.0266 7.69792 10.9242C7.73982 10.8218 7.8017 10.7288 7.87994 10.6505C7.95819 10.5723 8.05123 10.5104 8.15364 10.4685C8.25606 10.4266 8.36579 10.4055 8.47644 10.4065C8.58709 10.4074 8.69644 10.4304 8.79811 10.4741C8.89978 10.5178 8.99173 10.5813 9.0686 10.6609L10.1461 11.7384L12.4736 9.41086C12.6299 9.25463 12.8418 9.16687 13.0628 9.16687C13.2837 9.16687 13.4957 9.25463 13.6519 9.41086Z" fill="#007AFF"/>
<path d="M4.31287 4.16669C4.31287 3.50365 4.57626 2.86776 5.0451 2.39892C5.51394 1.93008 6.14982 1.66669 6.81287 1.66669L12.6787 1.66669C13.0535 1.66677 13.4236 1.75115 13.7614 1.91357C14.0992 2.07599 14.3962 2.31231 14.6304 2.60502L17.0987 5.68919C17.4534 6.13272 17.6465 6.68379 17.6462 7.25169L17.6462 15.8334C17.6462 16.4964 17.3828 17.1323 16.914 17.6011C16.4451 18.07 15.8092 18.3334 15.1462 18.3334L6.81287 18.3334C6.14982 18.3334 5.51394 18.07 5.0451 17.6011C4.57626 17.1323 4.31287 16.4964 4.31287 15.8334L4.31287 4.16669ZM6.81287 3.33335C6.59185 3.33335 6.37989 3.42115 6.22361 3.57743C6.06733 3.73371 5.97953 3.94567 5.97953 4.16669L5.97953 15.8334C5.97953 16.0544 6.06733 16.2663 6.22361 16.4226C6.37989 16.5789 6.59185 16.6667 6.81287 16.6667L15.1462 16.6667C15.3672 16.6667 15.5792 16.5789 15.7355 16.4226C15.8917 16.2663 15.9795 16.0544 15.9795 15.8334L15.9795 7.50002L13.4795 7.50002C13.0375 7.50002 12.6136 7.32443 12.301 7.01186C11.9885 6.6993 11.8129 6.27538 11.8129 5.83335L11.8129 3.33335L6.81287 3.33335ZM13.4795 3.83335L13.4795 5.83335L15.0795 5.83335L13.4795 3.83335Z" fill="#007AFF"/>
</g>
<defs>
<clipPath id="clip0_52_2505">
<rect width="20" height="20" fill="white" transform="translate(0.979492)"/>
</clipPath>
</defs>
</svg>
