<svg width="17" height="17" viewBox="0 0 17 17" fill="none" xmlns="http://www.w3.org/2000/svg">
<g clip-path="url(#clip0_5_3182)">
<path d="M8.25 4.52002V7.81502L6.92 9.14002L7.63 9.85002L9.25 8.22502V4.52002H8.25Z" fill="#4A4D55"/>
<path d="M14.75 8.02002C14.7473 7.53427 14.6852 7.05067 14.565 6.58002L13.595 6.82002C13.6972 7.21185 13.7493 7.61507 13.75 8.02002C13.7564 9.1914 13.3513 10.3278 12.6054 11.2311C11.8595 12.1343 10.8202 12.747 9.66873 12.9622C8.51727 13.1774 7.32681 12.9815 6.30502 12.4087C5.28324 11.8359 4.49501 10.9225 4.07786 9.82786C3.66071 8.73326 3.64112 7.52694 4.02251 6.41937C4.4039 5.3118 5.16205 4.3733 6.1647 3.7676C7.16734 3.16189 8.35082 2.92745 9.50866 3.10517C10.6665 3.28289 11.7252 3.86149 12.5 4.74002L13.25 4.08002C12.8198 3.58748 12.3134 3.16714 11.75 2.83502V0.0200195H5.75V2.82502C4.84194 3.35278 4.08831 4.10966 3.56448 5.02C3.04064 5.93033 2.76494 6.96223 2.76494 8.01252C2.76494 9.06281 3.04064 10.0947 3.56448 11.005C4.08831 11.9154 4.84194 12.6723 5.75 13.2V16.02H11.75V13.19C12.6583 12.6656 13.4133 11.9123 13.9396 11.0052C14.466 10.0981 14.7454 9.0688 14.75 8.02002ZM6.75 1.02002H10.75V2.37002C9.45691 1.90676 8.0431 1.90676 6.75 2.37002V1.02002ZM10.75 15.02H6.75V13.66C8.04251 14.1266 9.45749 14.1266 10.75 13.66V15.02Z" fill="#4A4D55"/>
</g>
<defs>
<clipPath id="clip0_5_3182">
<rect width="16" height="16" fill="white" transform="translate(0.75 0.0200195)"/>
</clipPath>
</defs>
</svg>
