<svg width="17" height="17" viewBox="0 0 17 17" fill="none" xmlns="http://www.w3.org/2000/svg">
<g clip-path="url(#clip0_5_2434)">
<path d="M8.25 5.23999V8.53499L6.92 9.85999L7.63 10.57L9.25 8.94499V5.23999H8.25Z" fill="#4A4D55"/>
<path d="M14.75 8.73999C14.7473 8.25424 14.6852 7.77064 14.565 7.29999L13.595 7.53999C13.6972 7.93182 13.7493 8.33504 13.75 8.73999C13.7564 9.91137 13.3513 11.0478 12.6054 11.951C11.8595 12.8543 10.8202 13.4669 9.66873 13.6821C8.51727 13.8974 7.32681 13.7015 6.30502 13.1287C5.28324 12.5558 4.49501 11.6424 4.07786 10.5478C3.66071 9.45323 3.64112 8.24691 4.02251 7.13934C4.4039 6.03177 5.16205 5.09327 6.1647 4.48757C7.16734 3.88187 8.35082 3.64742 9.50866 3.82514C10.6665 4.00286 11.7252 4.58146 12.5 5.45999L13.25 4.79999C12.8198 4.30745 12.3134 3.88711 11.75 3.55499V0.73999H5.75V3.54499C4.84194 4.07275 4.08831 4.82963 3.56448 5.73997C3.04064 6.6503 2.76494 7.6822 2.76494 8.73249C2.76494 9.78278 3.04064 10.8147 3.56448 11.725C4.08831 12.6353 4.84194 13.3922 5.75 13.92V16.74H11.75V13.91C12.6583 13.3856 13.4133 12.6323 13.9396 11.7252C14.466 10.818 14.7454 9.78877 14.75 8.73999ZM6.75 1.73999H10.75V3.08999C9.45691 2.62673 8.0431 2.62673 6.75 3.08999V1.73999ZM10.75 15.74H6.75V14.38C8.04251 14.8466 9.45749 14.8466 10.75 14.38V15.74Z" fill="#4A4D55"/>
</g>
<defs>
<clipPath id="clip0_5_2434">
<rect width="16" height="16" fill="white" transform="translate(0.75 0.73999)"/>
</clipPath>
</defs>
</svg>
