<svg width="22" height="23" viewBox="0 0 22 23" fill="none" xmlns="http://www.w3.org/2000/svg">
<g clip-path="url(#clip0_5_2422)">
<path d="M11 4.68624L12.5913 8.84373L12.936 9.74851L13.882 9.79338L18.2013 10.0252L14.8427 12.8965L14.1093 13.5022L14.344 14.422L15.422 18.6542L11.7553 16.3212L11 15.8277L10.2227 16.3212L6.556 18.6542L7.634 14.422L7.86867 13.5022L7.13533 12.8965L3.79867 10.0252L8.118 9.79338L9.064 9.74851L9.40867 8.84373L11 4.68624ZM11 0.573608L8.06667 8.29788L0 8.72409L6.21133 14.0406L4.202 21.9069L11 17.5924L17.798 21.9069L15.7887 14.0406L22 8.72409L13.9333 8.29788L11 0.573608Z" fill="#FECB51"/>
</g>
<defs>
<clipPath id="clip0_5_2422">
<rect width="22" height="22" fill="white" transform="translate(0 0.5)"/>
</clipPath>
</defs>
</svg>
