<svg width="17" height="17" viewBox="0 0 17 17" fill="none" xmlns="http://www.w3.org/2000/svg">
<g clip-path="url(#clip0_5_3188)">
<path d="M8.25 4.75V8.045L6.92 9.37L7.63 10.08L9.25 8.455V4.75H8.25Z" fill="#4A4D55"/>
<path d="M14.75 8.25C14.7473 7.76425 14.6852 7.28065 14.565 6.81L13.595 7.05C13.6972 7.44183 13.7493 7.84505 13.75 8.25C13.7564 9.42138 13.3513 10.5578 12.6054 11.461C11.8595 12.3643 10.8202 12.9769 9.66873 13.1922C8.51727 13.4074 7.32681 13.2115 6.30502 12.6387C5.28324 12.0658 4.49501 11.1524 4.07786 10.0578C3.66071 8.96324 3.64112 7.75692 4.02251 6.64935C4.4039 5.54178 5.16205 4.60328 6.1647 3.99758C7.16734 3.39188 8.35082 3.15743 9.50866 3.33515C10.6665 3.51287 11.7252 4.09147 12.5 4.97L13.25 4.31C12.8198 3.81746 12.3134 3.39712 11.75 3.065V0.25H5.75V3.055C4.84194 3.58276 4.08831 4.33964 3.56448 5.24998C3.04064 6.16031 2.76494 7.19221 2.76494 8.2425C2.76494 9.29279 3.04064 10.3247 3.56448 11.235C4.08831 12.1454 4.84194 12.9022 5.75 13.43V16.25H11.75V13.42C12.6583 12.8956 13.4133 12.1423 13.9396 11.2352C14.466 10.328 14.7454 9.29878 14.75 8.25ZM6.75 1.25H10.75V2.6C9.45691 2.13674 8.0431 2.13674 6.75 2.6V1.25ZM10.75 15.25H6.75V13.89C8.04251 14.3566 9.45749 14.3566 10.75 13.89V15.25Z" fill="#4A4D55"/>
</g>
<defs>
<clipPath id="clip0_5_3188">
<rect width="16" height="16" fill="white" transform="translate(0.75 0.25)"/>
</clipPath>
</defs>
</svg>
