<svg width="16" height="17" viewBox="0 0 16 17" fill="none" xmlns="http://www.w3.org/2000/svg">
<g clip-path="url(#clip0_5_2440)">
<path d="M15 2.83997H11.05V3.83997H14.2L9 8.93997L9.7 9.63997L15 4.43997V7.78997H16V2.83997H15Z" fill="#4A4D55"/>
<path d="M15 10.79C15 12.19 13.9 13.29 12.5 13.29C11.9 13.29 11.4 13.09 10.95 12.79L5.95 8.29004C5.3 7.69004 4.45 7.29004 3.5 7.29004C1.55 7.29004 0 8.84004 0 10.79C0 12.74 1.55 14.29 3.5 14.29C4.45 14.29 5.3 13.89 5.95 13.29L6.8 12.54L6.05 11.89L5.3 12.54C4.85 12.99 4.2 13.29 3.5 13.29C2.1 13.29 1 12.19 1 10.79C1 9.39004 2.1 8.29004 3.5 8.29004C4.2 8.29004 4.8 8.59004 5.25 9.04004L10.3 13.54C10.9 14.04 11.65 14.29 12.5 14.29C14.45 14.29 16 12.74 16 10.79H15Z" fill="#4A4D55"/>
</g>
<defs>
<clipPath id="clip0_5_2440">
<rect width="16" height="16" fill="white" transform="translate(0 0.48999)"/>
</clipPath>
</defs>
</svg>
