<svg width="17" height="17" viewBox="0 0 17 17" fill="none" xmlns="http://www.w3.org/2000/svg">
<g clip-path="url(#clip0_5_3200)">
<path d="M8.25001 4.75V8.045L6.92001 9.37L7.63001 10.08L9.25001 8.455V4.75H8.25001Z" fill="#4A4D55"/>
<path d="M14.75 8.25C14.7473 7.76425 14.6852 7.28065 14.565 6.81L13.595 7.05C13.6972 7.44183 13.7493 7.84505 13.75 8.25C13.7564 9.42138 13.3513 10.5578 12.6054 11.461C11.8595 12.3643 10.8202 12.9769 9.66871 13.1922C8.51726 13.4074 7.32679 13.2115 6.30501 12.6387C5.28323 12.0658 4.495 11.1524 4.07785 10.0578C3.6607 8.96324 3.64111 7.75692 4.0225 6.64935C4.40388 5.54178 5.16204 4.60328 6.16468 3.99758C7.16733 3.39188 8.35081 3.15743 9.50864 3.33515C10.6665 3.51287 11.7252 4.09147 12.5 4.97L13.25 4.31C12.8198 3.81746 12.3133 3.39712 11.75 3.065V0.25H5.74999V3.055C4.84192 3.58276 4.0883 4.33964 3.56446 5.24998C3.04062 6.16031 2.76492 7.19221 2.76492 8.2425C2.76492 9.29279 3.04062 10.3247 3.56446 11.235C4.0883 12.1454 4.84192 12.9022 5.74999 13.43V16.25H11.75V13.42C12.6583 12.8956 13.4132 12.1423 13.9396 11.2352C14.466 10.328 14.7454 9.29878 14.75 8.25ZM6.74999 1.25H10.75V2.6C9.45689 2.13674 8.04308 2.13674 6.74999 2.6V1.25ZM10.75 15.25H6.74999V13.89C8.0425 14.3566 9.45748 14.3566 10.75 13.89V15.25Z" fill="#4A4D55"/>
</g>
<defs>
<clipPath id="clip0_5_3200">
<rect width="16" height="16" fill="white" transform="translate(0.75 0.25)"/>
</clipPath>
</defs>
</svg>
