<svg width="17" height="17" viewBox="0 0 17 17" fill="none" xmlns="http://www.w3.org/2000/svg">
<g clip-path="url(#clip0_5_3082)">
<path d="M7.79999 4.77002V8.06502L6.46999 9.39002L7.17999 10.1L8.79999 8.47502V4.77002H7.79999Z" fill="#4A4D55"/>
<path d="M14.3 8.27002C14.2973 7.78427 14.2352 7.30067 14.115 6.83002L13.145 7.07002C13.2472 7.46185 13.2993 7.86507 13.3 8.27002C13.3064 9.4414 12.9013 10.5778 12.1554 11.4811C11.4095 12.3843 10.3702 12.997 9.21872 13.2122C8.06726 13.4274 6.87679 13.2315 5.85501 12.6587C4.83323 12.0859 4.045 11.1725 3.62785 10.0779C3.2107 8.98326 3.19111 7.77694 3.5725 6.66937C3.95389 5.5618 4.71204 4.6233 5.71468 4.0176C6.71733 3.41189 7.90081 3.17745 9.05864 3.35517C10.2165 3.53289 11.2752 4.11149 12.05 4.99002L12.8 4.33002C12.3698 3.83748 11.8633 3.41714 11.3 3.08502V0.27002H5.29999V3.07502C4.39192 3.60278 3.6383 4.35966 3.11446 5.27C2.59063 6.18033 2.31493 7.21223 2.31493 8.26252C2.31493 9.31281 2.59063 10.3447 3.11446 11.255C3.6383 12.1654 4.39192 12.9223 5.29999 13.45V16.27H11.3V13.44C12.2083 12.9156 12.9632 12.1623 13.4896 11.2552C14.016 10.3481 14.2954 9.3188 14.3 8.27002ZM6.29999 1.27002H10.3V2.62002C9.0069 2.15676 7.59308 2.15676 6.29999 2.62002V1.27002ZM10.3 15.27H6.29999V13.91C7.5925 14.3766 9.00748 14.3766 10.3 13.91V15.27Z" fill="#4A4D55"/>
</g>
<defs>
<clipPath id="clip0_5_3082">
<rect width="16" height="16" fill="white" transform="translate(0.299988 0.27002)"/>
</clipPath>
</defs>
</svg>
