<svg width="19" height="18" viewBox="0 0 19 18" fill="none" xmlns="http://www.w3.org/2000/svg">
<g clip-path="url(#clip0_52_7001)">
<path fill-rule="evenodd" clip-rule="evenodd" d="M4.40629 5.93478L9.71479 11.2275L15.0128 5.93478C15.082 5.86314 15.1647 5.80601 15.2562 5.7667C15.3477 5.72739 15.4462 5.7067 15.5457 5.70584C15.6453 5.70497 15.7441 5.72395 15.8363 5.76166C15.9284 5.79937 16.0122 5.85506 16.0826 5.92548C16.153 5.9959 16.2087 6.07964 16.2464 6.17181C16.2841 6.26398 16.3031 6.36274 16.3022 6.46233C16.3014 6.56191 16.2807 6.66033 16.2414 6.75183C16.2021 6.84333 16.1449 6.92609 16.0733 6.99528L10.2458 12.8183C10.1761 12.888 10.0934 12.9433 10.0024 12.9811C9.91132 13.0188 9.81372 13.0382 9.71516 13.0382C9.6166 13.0382 9.51901 13.0188 9.42796 12.9811C9.33691 12.9433 9.25419 12.888 9.18454 12.8183L3.34579 6.99603C3.20917 6.85458 3.13357 6.66512 3.13528 6.46848C3.13699 6.27183 3.21587 6.08372 3.35492 5.94466C3.49398 5.80561 3.68209 5.72673 3.87874 5.72502C4.07538 5.72331 4.26484 5.79816 4.40629 5.93478Z" fill="#3C3C43" fill-opacity="0.6"/>
</g>
<defs>
<clipPath id="clip0_52_7001">
<rect width="18" height="18" fill="white" transform="translate(0.709473)"/>
</clipPath>
</defs>
</svg>
