<svg width="19" height="18" viewBox="0 0 19 18" fill="none" xmlns="http://www.w3.org/2000/svg">
<g clip-path="url(#clip0_52_6991)">
<path fill-rule="evenodd" clip-rule="evenodd" d="M4.49638 5.93478L9.80488 11.2275L15.1029 5.93478C15.1721 5.86314 15.2548 5.80601 15.3463 5.7667C15.4378 5.72739 15.5362 5.7067 15.6358 5.70584C15.7354 5.70497 15.8342 5.72395 15.9263 5.76166C16.0185 5.79937 16.1023 5.85506 16.1727 5.92548C16.2431 5.9959 16.2988 6.07964 16.3365 6.17181C16.3742 6.26398 16.3932 6.36274 16.3923 6.46233C16.3914 6.56191 16.3708 6.66033 16.3315 6.75183C16.2921 6.84333 16.235 6.92609 16.1634 6.99528L10.3359 12.8183C10.2662 12.888 10.1835 12.9433 10.0925 12.9811C10.0014 13.0188 9.90381 13.0382 9.80525 13.0382C9.70669 13.0382 9.60909 13.0188 9.51805 12.9811C9.427 12.9433 9.34428 12.888 9.27463 12.8183L3.43588 6.99603C3.29926 6.85458 3.22366 6.66512 3.22537 6.46848C3.22708 6.27183 3.30596 6.08372 3.44501 5.94466C3.58407 5.80561 3.77218 5.72673 3.96882 5.72502C4.16547 5.72331 4.35492 5.79816 4.49638 5.93478Z" fill="#3C3C43" fill-opacity="0.6"/>
</g>
<defs>
<clipPath id="clip0_52_6991">
<rect width="18" height="18" fill="white" transform="translate(0.799561)"/>
</clipPath>
</defs>
</svg>
