<svg width="19" height="18" viewBox="0 0 19 18" fill="none" xmlns="http://www.w3.org/2000/svg">
<g clip-path="url(#clip0_52_7006)">
<path fill-rule="evenodd" clip-rule="evenodd" d="M4.2664 5.93478L9.5749 11.2275L14.8729 5.93478C14.9421 5.86314 15.0248 5.80601 15.1163 5.7667C15.2078 5.72739 15.3063 5.7067 15.4058 5.70584C15.5054 5.70497 15.6042 5.72395 15.6964 5.76166C15.7885 5.79937 15.8723 5.85506 15.9427 5.92548C16.0131 5.9959 16.0688 6.07964 16.1065 6.17181C16.1442 6.26398 16.1632 6.36274 16.1623 6.46233C16.1615 6.56191 16.1408 6.66033 16.1015 6.75183C16.0622 6.84333 16.005 6.92609 15.9334 6.99528L10.1059 12.8183C10.0362 12.888 9.95352 12.9433 9.86248 12.9811C9.77143 13.0188 9.67383 13.0382 9.57527 13.0382C9.47671 13.0382 9.37911 13.0188 9.28806 12.9811C9.19702 12.9433 9.1143 12.888 9.04465 12.8183L3.2059 6.99603C3.06928 6.85458 2.99368 6.66512 2.99539 6.46848C2.9971 6.27183 3.07598 6.08372 3.21503 5.94466C3.35409 5.80561 3.5422 5.72673 3.73884 5.72502C3.93549 5.72331 4.12494 5.79816 4.2664 5.93478Z" fill="#3C3C43" fill-opacity="0.6"/>
</g>
<defs>
<clipPath id="clip0_52_7006">
<rect width="18" height="18" fill="white" transform="translate(0.56958)"/>
</clipPath>
</defs>
</svg>
