<svg width="19" height="18" viewBox="0 0 19 18" fill="none" xmlns="http://www.w3.org/2000/svg">
<g clip-path="url(#clip0_52_3833)">
<path d="M11.6006 11.254C11.0043 11.312 10.4037 11.2032 9.86557 10.94C9.74383 10.8432 9.64329 10.7224 9.57018 10.5852C9.49707 10.4479 9.45295 10.297 9.44057 10.142C9.44044 10.1187 9.43566 10.0956 9.42649 10.0742C9.41733 10.0527 9.40397 10.0333 9.3872 10.0171C9.37043 10.0009 9.35059 9.98821 9.32884 9.97977C9.30709 9.97134 9.28388 9.96734 9.26056 9.96801C9.00957 9.96548 8.75856 9.96548 8.50757 9.96801C8.46386 9.96351 8.42014 9.97642 8.38588 10.0039C8.35163 10.0314 8.3296 10.0714 8.32457 10.115C8.31043 10.3867 8.35663 10.6582 8.45985 10.9099C8.56307 11.1617 8.72075 11.3874 8.92157 11.571C9.42975 11.966 10.046 12.1972 10.6886 12.234C11.3586 12.312 12.0376 12.283 12.6986 12.149C13.2059 12.0551 13.6715 11.8056 14.0306 11.435C14.4326 10.941 14.5516 10.275 14.3436 9.67301C14.2577 9.4642 14.1252 9.27779 13.9562 9.12805C13.7872 8.9783 13.5862 8.86917 13.3686 8.80901C12.3526 8.45301 11.2546 8.48101 10.2186 8.21101C10.0386 8.15601 9.81857 8.09401 9.73857 7.90501C9.69199 7.77148 9.68866 7.62667 9.72905 7.49114C9.76944 7.35562 9.85149 7.23626 9.96356 7.15001C10.2894 6.96483 10.66 6.87314 11.0346 6.88501C11.5424 6.83773 12.0542 6.91069 12.5286 7.09801C12.8166 7.26701 13.0166 7.55401 13.0736 7.88101C13.075 7.92904 13.0944 7.97478 13.1279 8.00922C13.1614 8.04365 13.2066 8.06428 13.2546 8.06701C13.5046 8.07301 13.7526 8.06901 14.0036 8.06901C14.0465 8.07409 14.0898 8.06355 14.1256 8.03932C14.1614 8.01508 14.1873 7.97876 14.1986 7.93701C14.2006 7.60152 14.1147 7.27135 13.9494 6.9794C13.7842 6.68744 13.5453 6.44389 13.2566 6.27301C12.4587 5.90707 11.5741 5.77263 10.7036 5.88501C10.0662 5.9108 9.45703 6.15434 8.97756 6.57501C8.75822 6.81032 8.60961 7.10266 8.54877 7.41855C8.48793 7.73443 8.51732 8.06106 8.63356 8.36101C8.72431 8.56251 8.85766 8.74195 9.02442 8.88697C9.19119 9.03198 9.38741 9.13912 9.59957 9.20101C10.6136 9.56401 11.7236 9.44701 12.7446 9.77001C12.9446 9.83701 13.1766 9.94001 13.2376 10.16C13.2703 10.2925 13.2677 10.4313 13.2302 10.5625C13.1926 10.6937 13.1214 10.8128 13.0236 10.908C12.5978 11.1709 12.0996 11.2921 11.6006 11.254ZM15.9616 4.58501C13.9841 3.47203 12.0061 2.36003 10.0276 1.24901C9.82905 1.13868 9.60568 1.08078 9.37856 1.08078C9.15145 1.08078 8.92808 1.13868 8.72957 1.24901L2.81757 4.57201C2.62617 4.67552 2.46603 4.82846 2.35382 5.01489C2.24161 5.20132 2.18144 5.41442 2.17957 5.63201L2.17957 12.324C2.18303 12.5456 2.24651 12.7622 2.36326 12.9506C2.48001 13.139 2.64565 13.2922 2.84257 13.394C3.40857 13.7 3.95857 14.039 4.53557 14.325C4.86839 14.502 5.23769 14.5996 5.61452 14.61C5.99136 14.6204 6.36548 14.5434 6.70757 14.385C6.96332 14.2261 7.17162 14.0014 7.31062 13.7343C7.44961 13.4672 7.51419 13.1676 7.49757 12.867C7.50057 10.659 7.49757 8.45001 7.49857 6.24201C7.50255 6.2178 7.50135 6.19302 7.49503 6.16931C7.48871 6.14561 7.47742 6.12352 7.46191 6.10451C7.4464 6.0855 7.42702 6.07001 7.40507 6.05906C7.38311 6.04811 7.35908 6.04196 7.33457 6.04101C7.08257 6.03801 6.83056 6.03801 6.57857 6.04101C6.55532 6.03891 6.5319 6.04171 6.5098 6.04922C6.48771 6.05673 6.46743 6.06879 6.45028 6.08462C6.43314 6.10045 6.4195 6.1197 6.41024 6.14112C6.40099 6.16254 6.39633 6.18567 6.39657 6.20901C6.39357 8.40301 6.39857 10.599 6.39657 12.794C6.39657 13.104 6.20357 13.382 5.91157 13.491C5.74746 13.5392 5.57505 13.5524 5.40553 13.5296C5.23601 13.5069 5.07317 13.4488 4.92757 13.359L3.35557 12.475C3.3208 12.4587 3.29187 12.4322 3.27273 12.3989C3.25359 12.3656 3.24515 12.3272 3.24857 12.289L3.24857 5.66701C3.24497 5.62413 3.25503 5.58121 3.2773 5.54439C3.29957 5.50757 3.33292 5.47873 3.37257 5.46201L9.26357 2.15601C9.29766 2.13244 9.33812 2.11982 9.37957 2.11982C9.42101 2.11982 9.46147 2.13244 9.49557 2.15601L15.3876 5.46101C15.4268 5.47826 15.4596 5.50724 15.4817 5.54395C15.5037 5.58067 15.5138 5.62331 15.5106 5.66601L15.5106 12.29C15.5139 12.3284 15.5056 12.3669 15.4867 12.4004C15.4677 12.434 15.4391 12.461 15.4046 12.478C13.4706 13.567 11.5346 14.654 9.59957 15.74C9.50757 15.79 9.39757 15.873 9.28957 15.81C8.78157 15.525 8.28257 15.228 7.77657 14.94C7.75079 14.9199 7.71955 14.908 7.68691 14.9058C7.65428 14.9037 7.62175 14.9114 7.59357 14.928C7.37157 15.058 7.13757 15.168 6.89357 15.254C6.78457 15.298 6.64957 15.311 6.57357 15.412C6.66957 15.516 6.78657 15.599 6.91757 15.657L8.69057 16.677C8.88656 16.7994 9.11167 16.8673 9.34267 16.8736C9.57367 16.88 9.80217 16.8245 10.0046 16.713C11.9746 15.608 13.9456 14.502 15.9166 13.394C16.1133 13.292 16.2787 13.1387 16.3954 12.9503C16.5122 12.762 16.5758 12.5456 16.5796 12.324L16.5796 5.63101C16.5773 5.41778 16.519 5.20889 16.4106 5.02529C16.3021 4.8417 16.1472 4.68986 15.9616 4.58501Z" fill="white"/>
<mask id="mask0_52_3833" style="mask-type:luminance" maskUnits="userSpaceOnUse" x="1" y="0" width="17" height="19">
<path d="M1.17957 0.0809937L17.1796 0.0809937L17.1796 18.081L1.17957 18.081L1.17957 0.0809937Z" fill="white"/>
<path d="M11.6006 11.254C11.0043 11.3119 10.4037 11.2032 9.86557 10.94C9.74383 10.8432 9.64329 10.7224 9.57018 10.5851C9.49707 10.4479 9.45295 10.297 9.44057 10.142C9.44044 10.1187 9.43566 10.0956 9.42649 10.0742C9.41733 10.0527 9.40397 10.0333 9.3872 10.0171C9.37043 10.0009 9.35059 9.98819 9.32884 9.97976C9.30709 9.97133 9.28388 9.96733 9.26056 9.96799C9.00957 9.96547 8.75856 9.96547 8.50757 9.96799C8.46386 9.96349 8.42014 9.9764 8.38588 10.0039C8.35163 10.0314 8.3296 10.0713 8.32457 10.115C8.31043 10.3867 8.35663 10.6582 8.45985 10.9099C8.56307 11.1617 8.72075 11.3874 8.92157 11.571C9.42975 11.966 10.046 12.1972 10.6886 12.234C11.3586 12.312 12.0376 12.283 12.6986 12.149C13.2059 12.0551 13.6715 11.8056 14.0306 11.435C14.4326 10.941 14.5516 10.275 14.3436 9.67299C14.2577 9.46418 14.1252 9.27778 13.9562 9.12803C13.7872 8.97828 13.5862 8.86916 13.3686 8.80899C12.3526 8.45299 11.2546 8.48099 10.2186 8.21099C10.0386 8.15599 9.81857 8.09399 9.73857 7.90499C9.69199 7.77146 9.68866 7.62666 9.72905 7.49113C9.76944 7.3556 9.85149 7.23624 9.96356 7.14999C10.2894 6.96482 10.66 6.87312 11.0346 6.88499C11.5424 6.83771 12.0542 6.91068 12.5286 7.09799C12.8166 7.26699 13.0166 7.55399 13.0736 7.88099C13.075 7.92902 13.0944 7.97477 13.1279 8.0092C13.1614 8.04364 13.2066 8.06426 13.2546 8.06699C13.5046 8.07299 13.7526 8.06899 14.0036 8.06899C14.0465 8.07408 14.0898 8.06354 14.1256 8.0393C14.1614 8.01506 14.1873 7.97875 14.1986 7.93699C14.2006 7.60151 14.1147 7.27134 13.9494 6.97938C13.7842 6.68743 13.5453 6.44388 13.2566 6.27299C12.4587 5.90705 11.5741 5.77261 10.7036 5.88499C10.0662 5.91078 9.45703 6.15432 8.97756 6.57499C8.75822 6.8103 8.60961 7.10265 8.54877 7.41853C8.48793 7.73441 8.51732 8.06104 8.63356 8.36099C8.72431 8.5625 8.85766 8.74194 9.02442 8.88695C9.19119 9.03197 9.38741 9.13911 9.59957 9.20099C10.6136 9.56399 11.7236 9.44699 12.7446 9.76999C12.9446 9.83699 13.1766 9.93999 13.2376 10.16C13.2703 10.2925 13.2677 10.4313 13.2302 10.5625C13.1926 10.6937 13.1214 10.8128 13.0236 10.908C12.5978 11.1709 12.0996 11.2921 11.6006 11.254ZM15.9616 4.58499C13.9841 3.47202 12.0061 2.36002 10.0276 1.24899C9.82905 1.13866 9.60568 1.08076 9.37856 1.08076C9.15145 1.08076 8.92808 1.13866 8.72957 1.24899L2.81757 4.57199C2.62617 4.67551 2.46603 4.82844 2.35382 5.01487C2.24161 5.2013 2.18144 5.41441 2.17957 5.63199L2.17957 12.324C2.18303 12.5456 2.24651 12.7622 2.36326 12.9506C2.48001 13.139 2.64565 13.2922 2.84257 13.394C3.40857 13.7 3.95857 14.039 4.53557 14.325C4.86839 14.502 5.23769 14.5996 5.61452 14.61C5.99136 14.6204 6.36548 14.5434 6.70757 14.385C6.96332 14.2261 7.17162 14.0013 7.31062 13.7343C7.44961 13.4672 7.51419 13.1676 7.49757 12.867C7.50057 10.659 7.49757 8.44999 7.49857 6.24199C7.50255 6.21778 7.50135 6.19301 7.49503 6.1693C7.48871 6.14559 7.47742 6.1235 7.46191 6.10449C7.4464 6.08548 7.42702 6.06999 7.40507 6.05904C7.38311 6.04809 7.35908 6.04194 7.33457 6.04099C7.08257 6.03799 6.83056 6.03799 6.57857 6.04099C6.55532 6.03889 6.5319 6.04169 6.5098 6.0492C6.48771 6.05672 6.46743 6.06877 6.45028 6.0846C6.43314 6.10043 6.4195 6.11968 6.41024 6.1411C6.40099 6.16253 6.39633 6.18566 6.39657 6.20899C6.39357 8.40299 6.39857 10.599 6.39657 12.794C6.39657 13.104 6.20357 13.382 5.91157 13.491C5.74746 13.5392 5.57505 13.5524 5.40553 13.5296C5.23601 13.5069 5.07317 13.4487 4.92757 13.359L3.35557 12.475C3.3208 12.4587 3.29187 12.4321 3.27273 12.3989C3.25359 12.3656 3.24515 12.3272 3.24857 12.289L3.24857 5.66699C3.24497 5.62411 3.25503 5.58119 3.2773 5.54437C3.29957 5.50755 3.33292 5.47872 3.37257 5.46199L9.26357 2.15599C9.29766 2.13242 9.33812 2.1198 9.37957 2.1198C9.42101 2.1198 9.46147 2.13242 9.49557 2.15599L15.3876 5.46099C15.4268 5.47825 15.4596 5.50723 15.4817 5.54394C15.5037 5.58065 15.5138 5.6233 15.5106 5.66599L15.5106 12.29C15.5139 12.3284 15.5056 12.3668 15.4867 12.4004C15.4677 12.4339 15.4391 12.461 15.4046 12.478C13.4706 13.567 11.5346 14.654 9.59957 15.74C9.50757 15.79 9.39757 15.873 9.28957 15.81C8.78157 15.525 8.28257 15.228 7.77657 14.94C7.75079 14.9199 7.71955 14.908 7.68691 14.9058C7.65428 14.9037 7.62175 14.9114 7.59357 14.928C7.37157 15.058 7.13757 15.168 6.89357 15.254C6.78457 15.298 6.64957 15.311 6.57357 15.412C6.66957 15.516 6.78657 15.599 6.91757 15.657L8.69057 16.677C8.88656 16.7994 9.11167 16.8673 9.34267 16.8736C9.57367 16.88 9.80217 16.8245 10.0046 16.713C11.9746 15.608 13.9456 14.502 15.9166 13.394C16.1133 13.292 16.2787 13.1387 16.3954 12.9503C16.5122 12.762 16.5758 12.5455 16.5796 12.324L16.5796 5.63099C16.5773 5.41776 16.519 5.20887 16.4106 5.02528C16.3021 4.84169 16.1472 4.68985 15.9616 4.58499Z" fill="white"/>
</mask>
<g mask="url(#mask0_52_3833)">
<path d="M11.6006 11.254C11.0043 11.3119 10.4037 11.2032 9.86557 10.94C9.74383 10.8432 9.64329 10.7224 9.57018 10.5851C9.49707 10.4479 9.45295 10.297 9.44057 10.142C9.44044 10.1187 9.43566 10.0956 9.42649 10.0742C9.41733 10.0527 9.40397 10.0333 9.3872 10.0171C9.37043 10.0009 9.35059 9.98819 9.32884 9.97976C9.30709 9.97133 9.28388 9.96733 9.26056 9.96799C9.00957 9.96547 8.75856 9.96547 8.50757 9.96799C8.46386 9.96349 8.42014 9.9764 8.38588 10.0039C8.35163 10.0314 8.3296 10.0713 8.32457 10.115C8.31043 10.3867 8.35663 10.6582 8.45985 10.9099C8.56307 11.1617 8.72075 11.3874 8.92157 11.571C9.42975 11.966 10.046 12.1972 10.6886 12.234C11.3586 12.312 12.0376 12.283 12.6986 12.149C13.2059 12.0551 13.6715 11.8056 14.0306 11.435C14.4326 10.941 14.5516 10.275 14.3436 9.67299C14.2577 9.46418 14.1252 9.27778 13.9562 9.12803C13.7872 8.97828 13.5862 8.86916 13.3686 8.80899C12.3526 8.45299 11.2546 8.48099 10.2186 8.21099C10.0386 8.15599 9.81857 8.09399 9.73857 7.90499C9.69199 7.77146 9.68866 7.62666 9.72905 7.49113C9.76944 7.3556 9.85149 7.23624 9.96356 7.14999C10.2894 6.96482 10.66 6.87312 11.0346 6.88499C11.5424 6.83771 12.0542 6.91068 12.5286 7.09799C12.8166 7.26699 13.0166 7.55399 13.0736 7.88099C13.075 7.92902 13.0944 7.97477 13.1279 8.0092C13.1614 8.04364 13.2066 8.06426 13.2546 8.06699C13.5046 8.07299 13.7526 8.06899 14.0036 8.06899C14.0465 8.07408 14.0898 8.06354 14.1256 8.0393C14.1614 8.01506 14.1873 7.97875 14.1986 7.93699C14.2006 7.60151 14.1147 7.27134 13.9494 6.97938C13.7842 6.68743 13.5453 6.44388 13.2566 6.27299C12.4587 5.90705 11.5741 5.77261 10.7036 5.88499C10.0662 5.91078 9.45703 6.15432 8.97756 6.57499C8.75822 6.8103 8.60961 7.10265 8.54877 7.41853C8.48793 7.73441 8.51732 8.06104 8.63356 8.36099C8.72431 8.5625 8.85766 8.74194 9.02442 8.88695C9.19119 9.03197 9.38741 9.13911 9.59957 9.20099C10.6136 9.56399 11.7236 9.44699 12.7446 9.76999C12.9446 9.83699 13.1766 9.93999 13.2376 10.16C13.2703 10.2925 13.2677 10.4313 13.2302 10.5625C13.1926 10.6937 13.1214 10.8128 13.0236 10.908C12.5978 11.1709 12.0996 11.2921 11.6006 11.254ZM15.9616 4.58499C13.9841 3.47202 12.0061 2.36002 10.0276 1.24899C9.82905 1.13866 9.60568 1.08076 9.37856 1.08076C9.15145 1.08076 8.92808 1.13866 8.72957 1.24899L2.81757 4.57199C2.62617 4.67551 2.46603 4.82844 2.35382 5.01487C2.24161 5.2013 2.18144 5.41441 2.17957 5.63199L2.17957 12.324C2.18303 12.5456 2.24651 12.7622 2.36326 12.9506C2.48001 13.139 2.64565 13.2922 2.84257 13.394C3.40857 13.7 3.95857 14.039 4.53557 14.325C4.86839 14.502 5.23769 14.5996 5.61452 14.61C5.99136 14.6204 6.36548 14.5434 6.70757 14.385C6.96332 14.2261 7.17162 14.0013 7.31062 13.7343C7.44961 13.4672 7.51419 13.1676 7.49757 12.867C7.50057 10.659 7.49757 8.44999 7.49857 6.24199C7.50255 6.21778 7.50135 6.19301 7.49503 6.1693C7.48871 6.14559 7.47742 6.1235 7.46191 6.10449C7.4464 6.08548 7.42702 6.06999 7.40507 6.05904C7.38311 6.04809 7.35908 6.04194 7.33457 6.04099C7.08257 6.03799 6.83056 6.03799 6.57857 6.04099C6.55532 6.03889 6.5319 6.04169 6.5098 6.0492C6.48771 6.05672 6.46743 6.06877 6.45028 6.0846C6.43314 6.10043 6.4195 6.11968 6.41024 6.1411C6.40099 6.16253 6.39633 6.18566 6.39657 6.20899C6.39357 8.40299 6.39857 10.599 6.39657 12.794C6.39657 13.104 6.20357 13.382 5.91157 13.491C5.74746 13.5392 5.57505 13.5524 5.40553 13.5296C5.23601 13.5069 5.07317 13.4487 4.92757 13.359L3.35557 12.475C3.3208 12.4587 3.29187 12.4321 3.27273 12.3989C3.25359 12.3656 3.24515 12.3272 3.24857 12.289L3.24857 5.66699C3.24497 5.62411 3.25503 5.58119 3.2773 5.54437C3.29957 5.50755 3.33292 5.47872 3.37257 5.46199L9.26357 2.15599C9.29766 2.13242 9.33812 2.1198 9.37957 2.1198C9.42101 2.1198 9.46147 2.13242 9.49557 2.15599L15.3876 5.46099C15.4268 5.47825 15.4596 5.50723 15.4817 5.54394C15.5037 5.58065 15.5138 5.6233 15.5106 5.66599L15.5106 12.29C15.5139 12.3284 15.5056 12.3668 15.4867 12.4004C15.4677 12.4339 15.4391 12.461 15.4046 12.478C13.4706 13.567 11.5346 14.654 9.59957 15.74C9.50757 15.79 9.39757 15.873 9.28957 15.81C8.78157 15.525 8.28257 15.228 7.77657 14.94C7.75079 14.9199 7.71955 14.908 7.68691 14.9058C7.65428 14.9037 7.62175 14.9114 7.59357 14.928C7.37157 15.058 7.13757 15.168 6.89357 15.254C6.78457 15.298 6.64957 15.311 6.57357 15.412C6.66957 15.516 6.78657 15.599 6.91757 15.657L8.69057 16.677C8.88656 16.7994 9.11167 16.8673 9.34267 16.8736C9.57367 16.88 9.80217 16.8245 10.0046 16.713C11.9746 15.608 13.9456 14.502 15.9166 13.394C16.1133 13.292 16.2787 13.1387 16.3954 12.9503C16.5122 12.762 16.5758 12.5455 16.5796 12.324L16.5796 5.63099C16.5773 5.41776 16.519 5.20887 16.4106 5.02528C16.3021 4.84169 16.1472 4.68985 15.9616 4.58499Z" fill="white"/>
</g>
</g>
<defs>
<clipPath id="clip0_52_3833">
<rect width="18" height="18" fill="white" transform="translate(0.379517)"/>
</clipPath>
</defs>
</svg>
