<svg width="18" height="18" viewBox="0 0 18 18" fill="none" xmlns="http://www.w3.org/2000/svg">
<g clip-path="url(#clip0_52_3808)">
<path fill-rule="evenodd" clip-rule="evenodd" d="M14.9995 7.5L14.9995 14.25C14.9995 14.6478 14.8415 15.0294 14.5602 15.3107C14.2789 15.592 13.8973 15.75 13.4995 15.75L4.49951 15.75C4.10169 15.75 3.72016 15.592 3.43885 15.3107C3.15755 15.0294 2.99951 14.6478 2.99951 14.25L2.99951 7.5C2.60169 7.5 2.22016 7.34196 1.93885 7.06066C1.65755 6.77936 1.49951 6.39782 1.49951 6L1.49951 4.5C1.49951 4.10218 1.65755 3.72064 1.93885 3.43934C2.22016 3.15804 2.60169 3 2.99951 3L14.9995 3C15.3973 3 15.7789 3.15804 16.0602 3.43934C16.3415 3.72064 16.4995 4.10218 16.4995 4.5L16.4995 6C16.4995 6.39782 16.3415 6.77936 16.0602 7.06066C15.7789 7.34196 15.3973 7.5 14.9995 7.5ZM4.49951 7.5L4.49951 14.25L13.4995 14.25L13.4995 7.5L4.49951 7.5ZM2.99951 4.5L2.99951 6L14.9995 6L14.9995 4.5L2.99951 4.5ZM7.49951 10.125C7.3006 10.125 7.10983 10.046 6.96918 9.90533C6.82853 9.76468 6.74951 9.57391 6.74951 9.375C6.74951 9.17609 6.82853 8.98532 6.96918 8.84467C7.10983 8.70402 7.3006 8.625 7.49951 8.625L10.4995 8.625C10.6984 8.625 10.8892 8.70402 11.0298 8.84467C11.1705 8.98532 11.2495 9.17609 11.2495 9.375C11.2495 9.57391 11.1705 9.76468 11.0298 9.90533C10.8892 10.046 10.6984 10.125 10.4995 10.125L7.49951 10.125Z" fill="#262626" fill-opacity="0.75"/>
</g>
<defs>
<clipPath id="clip0_52_3808">
<rect width="18" height="18" fill="white" transform="translate(-0.000488281)"/>
</clipPath>
</defs>
</svg>
