<svg width="19" height="18" viewBox="0 0 19 18" fill="none" xmlns="http://www.w3.org/2000/svg">
<g clip-path="url(#clip0_52_6996)">
<path fill-rule="evenodd" clip-rule="evenodd" d="M4.34623 5.93478L9.65473 11.2275L14.9527 5.93478C15.0219 5.86314 15.1047 5.80601 15.1962 5.7667C15.2877 5.72739 15.3861 5.7067 15.4857 5.70584C15.5853 5.70497 15.684 5.72395 15.7762 5.76166C15.8684 5.79937 15.9521 5.85506 16.0225 5.92548C16.0929 5.9959 16.1486 6.07964 16.1863 6.17181C16.2241 6.26398 16.243 6.36274 16.2422 6.46233C16.2413 6.56191 16.2206 6.66033 16.1813 6.75183C16.142 6.84333 16.0849 6.92609 16.0132 6.99528L10.1857 12.8183C10.1161 12.888 10.0334 12.9433 9.94231 12.9811C9.85126 13.0188 9.75367 13.0382 9.6551 13.0382C9.55654 13.0382 9.45895 13.0188 9.3679 12.9811C9.27685 12.9433 9.19413 12.888 9.12448 12.8183L3.28573 6.99603C3.14911 6.85458 3.07351 6.66512 3.07522 6.46848C3.07693 6.27183 3.15581 6.08372 3.29487 5.94466C3.43392 5.80561 3.62203 5.72673 3.81868 5.72502C4.01533 5.72331 4.20478 5.79816 4.34623 5.93478Z" fill="#3C3C43" fill-opacity="0.6"/>
</g>
<defs>
<clipPath id="clip0_52_6996">
<rect width="18" height="18" fill="white" transform="translate(0.649414)"/>
</clipPath>
</defs>
</svg>
