<svg width="20" height="20" viewBox="0 0 20 20" fill="none" xmlns="http://www.w3.org/2000/svg">
<g clip-path="url(#clip0_52_7017)">
<path fill-rule="evenodd" clip-rule="evenodd" d="M5.97778 4.68252C6.3995 4.36727 6.8568 4.10268 7.34029 3.89419L7.58195 2.92919C7.67208 2.56862 7.88014 2.24853 8.17306 2.01977C8.46598 1.79102 8.82696 1.66674 9.19862 1.66669L10.8003 1.66669C11.1719 1.66674 11.5329 1.79102 11.8258 2.01977C12.1188 2.24853 12.3268 2.56862 12.417 2.92919L12.6586 3.89419C13.1453 4.10419 13.602 4.36919 14.0211 4.68252L14.9795 4.40835C15.3368 4.30616 15.7181 4.32635 16.0626 4.46572C16.4072 4.60508 16.6953 4.85562 16.8811 5.17752L17.682 6.56502C17.8676 6.88686 17.9404 7.26151 17.8888 7.62946C17.8371 7.99741 17.664 8.33755 17.397 8.59585L16.6803 9.28919C16.7412 9.81186 16.7412 10.3398 16.6803 10.8625L17.397 11.5542C17.6642 11.8125 17.8375 12.1528 17.8891 12.521C17.9407 12.8891 17.8678 13.2639 17.682 13.5859L16.882 14.9734C16.6961 15.2954 16.4079 15.5461 16.0631 15.6855C15.7184 15.8248 15.3369 15.8449 14.9795 15.7425L14.0211 15.4684C13.5994 15.7836 13.1421 16.0482 12.6586 16.2567L12.417 17.2217C12.3268 17.5823 12.1188 17.9023 11.8258 18.1311C11.5329 18.3599 11.1719 18.4841 10.8003 18.4842L9.19945 18.4842C8.82779 18.4841 8.46682 18.3599 8.17389 18.1311C7.88097 17.9023 7.67291 17.5823 7.58279 17.2217L7.34112 16.2567C6.85764 16.0482 6.40033 15.7836 5.97862 15.4684L5.02029 15.7425C4.66293 15.8447 4.28167 15.8245 3.9371 15.6852C3.59254 15.5458 3.30444 15.2952 3.11862 14.9734L2.31779 13.5859C2.13212 13.264 2.05933 12.8894 2.11097 12.5214C2.1626 12.1535 2.33571 11.8133 2.60279 11.555L3.31945 10.8625C3.2585 10.3396 3.2585 9.81131 3.31945 9.28835L2.60279 8.59669C2.33551 8.33833 2.16229 7.99803 2.11065 7.6299C2.059 7.26177 2.13192 6.88695 2.31779 6.56502L3.11779 5.17752C3.30365 4.85545 3.59188 4.60479 3.93662 4.46542C4.28136 4.32604 4.66281 4.30595 5.02029 4.40835L5.97862 4.68252L5.97778 4.68252ZM4.56112 6.01085L3.76029 7.39835L5.06862 8.66335L4.97362 9.48169C4.92766 9.87619 4.92766 10.2747 4.97362 10.6692L5.06862 11.4875L3.76029 12.7525L4.56029 14.14L6.31362 13.6392L6.97529 14.1334C7.29195 14.37 7.63612 14.5692 8.00028 14.7259L8.75695 15.0525L9.19862 16.8175L10.8003 16.8175L11.242 15.0525L11.9995 14.7259C12.3631 14.5692 12.7072 14.3703 13.0245 14.1334L13.6853 13.6392L15.4378 14.14L16.2386 12.7525L14.9303 11.4875L15.0253 10.6692C15.0711 10.2747 15.0711 9.87619 15.0253 9.48169L14.9303 8.66335L16.2386 7.39835L15.4386 6.01085L13.6853 6.51169L13.0236 6.01752C12.7063 5.78085 12.3623 5.58227 11.9986 5.42585L11.242 5.09919L10.7995 3.33335L9.19945 3.33335L8.75779 5.09919L8.00028 5.42502C7.63658 5.58168 7.29256 5.78054 6.97529 6.01752L6.31445 6.51169L4.56112 6.01085ZM9.99945 13.3334C10.8835 13.3334 11.7314 12.9822 12.3565 12.357C12.9816 11.7319 13.3328 10.8841 13.3328 10C13.3328 9.11597 12.9816 8.26812 12.3565 7.643C11.7314 7.01788 10.8835 6.66669 9.99945 6.66669C9.1154 6.66669 8.26755 7.01788 7.64243 7.643C7.01731 8.26812 6.66612 9.11597 6.66612 10C6.66612 10.8841 7.01731 11.7319 7.64243 12.357C8.26755 12.9822 9.1154 13.3334 9.99945 13.3334ZM9.99945 11.6667C9.55742 11.6667 9.1335 11.4911 8.82094 11.1785C8.50838 10.866 8.33279 10.442 8.33279 10C8.33279 9.55799 8.50838 9.13407 8.82094 8.82151C9.1335 8.50895 9.55742 8.33335 9.99945 8.33335C10.4415 8.33335 10.8654 8.50895 11.178 8.82151C11.4905 9.13407 11.6661 9.55799 11.6661 10C11.6661 10.442 11.4905 10.866 11.178 11.1785C10.8654 11.4911 10.4415 11.6667 9.99945 11.6667Z" fill="#262626" fill-opacity="0.75"/>
</g>
<defs>
<clipPath id="clip0_52_7017">
<rect width="20" height="20" fill="white" transform="translate(-0.000488281)"/>
</clipPath>
</defs>
</svg>
