<svg width="15" height="15" viewBox="0 0 15 15" fill="none" xmlns="http://www.w3.org/2000/svg">
<g clip-path="url(#clip0_52_3872)">
<path fill-rule="evenodd" clip-rule="evenodd" d="M3.26483 5.11595L7.39366 9.23253L11.5143 5.11595C11.5681 5.06024 11.6325 5.0158 11.7037 4.98523C11.7748 4.95465 11.8514 4.93856 11.9288 4.93789C12.0063 4.93722 12.0831 4.95197 12.1548 4.98131C12.2265 5.01064 12.2916 5.05395 12.3464 5.10872C12.4012 5.16349 12.4445 5.22862 12.4738 5.30031C12.5031 5.372 12.5179 5.44881 12.5172 5.52627C12.5166 5.60372 12.5005 5.68027 12.4699 5.75144C12.4393 5.82261 12.3949 5.88697 12.3392 5.94078L7.80666 10.4698C7.75248 10.524 7.68815 10.567 7.61733 10.5964C7.54652 10.6258 7.47061 10.6409 7.39395 10.6409C7.31729 10.6409 7.24139 10.6258 7.17057 10.5964C7.09975 10.567 7.03542 10.524 6.98124 10.4698L2.43999 5.94137C2.33373 5.83135 2.27494 5.684 2.27627 5.53105C2.2776 5.3781 2.33894 5.23179 2.4471 5.12364C2.55525 5.01549 2.70156 4.95414 2.85451 4.95281C3.00746 4.95148 3.15481 5.00969 3.26483 5.11595Z" fill="#262626" fill-opacity="0.75"/>
</g>
<defs>
<clipPath id="clip0_52_3872">
<rect width="14" height="14" fill="white" transform="translate(0.389526 0.5)"/>
</clipPath>
</defs>
</svg>
