<svg width="19" height="18" viewBox="0 0 19 18" fill="none" xmlns="http://www.w3.org/2000/svg">
<g clip-path="url(#clip0_52_3813)">
<path fill-rule="evenodd" clip-rule="evenodd" d="M4.67053 1.34475C4.74019 1.27502 4.8229 1.2197 4.91395 1.18196C5.005 1.14421 5.10259 1.12479 5.20116 1.12479C5.29972 1.12479 5.39731 1.14421 5.48836 1.18196C5.57941 1.2197 5.66213 1.27502 5.73178 1.34475L8.13703 3.75L14.1745 3.75C14.3734 3.75 14.5642 3.82902 14.7049 3.96967C14.8455 4.11032 14.9245 4.30109 14.9245 4.5L14.9245 6.67125C15.466 6.83328 15.9407 7.16563 16.2782 7.61894C16.6157 8.07225 16.798 8.62234 16.798 9.1875C16.798 9.75267 16.6157 10.3028 16.2782 10.7561C15.9407 11.2094 15.466 11.5417 14.9245 11.7038L14.9245 13.875C14.9245 14.0739 14.8455 14.2647 14.7049 14.4053C14.5642 14.546 14.3734 14.625 14.1745 14.625L7.79953 14.625L7.79953 15.75C7.79953 15.9489 7.72051 16.1397 7.57986 16.2803C7.43921 16.421 7.24844 16.5 7.04953 16.5L3.29953 16.5C3.10062 16.5 2.90985 16.421 2.7692 16.2803C2.62855 16.1397 2.54953 15.9489 2.54953 15.75L2.54953 12C2.54953 11.8011 2.62855 11.6103 2.7692 11.4697C2.90985 11.329 3.10062 11.25 3.29953 11.25L7.04953 11.25C7.24844 11.25 7.43921 11.329 7.57986 11.4697C7.72051 11.6103 7.79953 11.8011 7.79953 12L7.79953 13.125L13.4245 13.125L13.4245 11.7038C12.8831 11.5417 12.4084 11.2094 12.0708 10.7561C11.7333 10.3028 11.551 9.75267 11.551 9.1875C11.551 8.62234 11.7333 8.07225 12.0708 7.61894C12.4084 7.16563 12.8831 6.83328 13.4245 6.67125L13.4245 5.25L8.18953 5.25L5.73178 7.7085C5.66213 7.77823 5.57941 7.83355 5.48836 7.8713C5.39731 7.90904 5.29972 7.92847 5.20116 7.92847C5.10259 7.92847 5.005 7.90904 4.91395 7.8713C4.8229 7.83355 4.74019 7.77823 4.67053 7.7085L2.01928 5.05725C1.94955 4.9876 1.89423 4.90488 1.85649 4.81383C1.81874 4.72278 1.79932 4.62519 1.79932 4.52663C1.79932 4.42806 1.81874 4.33047 1.85649 4.23942C1.89423 4.14837 1.94955 4.06566 2.01928 3.996L4.67053 1.34475ZM5.20153 2.9355L3.61003 4.527L5.20153 6.117L6.79153 4.527L5.20153 2.9355ZM14.1745 8.0625C13.8762 8.0625 13.59 8.18103 13.379 8.39201C13.1681 8.60298 13.0495 8.88913 13.0495 9.1875C13.0495 9.48587 13.1681 9.77202 13.379 9.983C13.59 10.194 13.8762 10.3125 14.1745 10.3125C14.4729 10.3125 14.759 10.194 14.97 9.983C15.181 9.77202 15.2995 9.48587 15.2995 9.1875C15.2995 8.88913 15.181 8.60298 14.97 8.39201C14.759 8.18103 14.4729 8.0625 14.1745 8.0625ZM4.04953 15L4.04953 12.75L6.29953 12.75L6.29953 15L4.04953 15Z" fill="#FFA116"/>
</g>
<defs>
<clipPath id="clip0_52_3813">
<rect width="18" height="18" fill="white" transform="translate(0.299561)"/>
</clipPath>
</defs>
</svg>
