<svg width="19" height="18" viewBox="0 0 19 18" fill="none" xmlns="http://www.w3.org/2000/svg">
<g clip-path="url(#clip0_52_3828)">
<path fill-rule="evenodd" clip-rule="evenodd" d="M13.1575 2.60999C12.6745 2.17874 11.9095 2.52224 11.9095 3.16949L11.9095 5.82899C11.9095 6.47624 12.6745 6.81899 13.1575 6.38999L14.6538 5.05949C14.7329 4.98913 14.7961 4.90284 14.8395 4.80628C14.8828 4.70972 14.9052 4.60508 14.9052 4.49924C14.9052 4.39341 14.8828 4.28877 14.8395 4.19221C14.7961 4.09565 14.7329 4.00936 14.6538 3.93899L13.1575 2.60849L13.1575 2.60999ZM3.65955 6.74999C3.65955 5.95435 3.97562 5.19128 4.53823 4.62867C5.10083 4.06606 5.8639 3.74999 6.65955 3.74999L10.4095 3.74999C10.6085 3.74999 10.7992 3.82901 10.9399 3.96966C11.0805 4.11032 11.1595 4.30108 11.1595 4.49999C11.1595 4.69891 11.0805 4.88967 10.9399 5.03032C10.7992 5.17098 10.6085 5.24999 10.4095 5.24999L6.65955 5.24999C6.26172 5.24999 5.88019 5.40803 5.59889 5.68933C5.31758 5.97064 5.15955 6.35217 5.15955 6.74999C5.15955 7.14782 5.31758 7.52935 5.59889 7.81065C5.88019 8.09196 6.26172 8.24999 6.65955 8.24999L12.6595 8.24999C13.4552 8.24999 14.2183 8.56606 14.7809 9.12867C15.3435 9.69128 15.6595 10.4543 15.6595 11.25C15.6595 12.0456 15.3435 12.8087 14.7809 13.3713C14.2183 13.9339 13.4552 14.25 12.6595 14.25L8.15955 14.25C7.96063 14.25 7.76987 14.171 7.62922 14.0303C7.48856 13.8897 7.40955 13.6989 7.40955 13.5C7.40955 13.3011 7.48856 13.1103 7.62922 12.9697C7.76987 12.829 7.96063 12.75 8.15955 12.75L12.6595 12.75C13.0574 12.75 13.4389 12.592 13.7202 12.3107C14.0015 12.0293 14.1595 11.6478 14.1595 11.25C14.1595 10.8522 14.0015 10.4706 13.7202 10.1893C13.4389 9.90803 13.0574 9.74999 12.6595 9.74999L6.65955 9.74999C5.8639 9.74999 5.10083 9.43392 4.53823 8.87132C3.97562 8.30871 3.65955 7.54564 3.65955 6.74999ZM6.65955 14.8297L6.65955 12.1702C6.65955 11.523 5.89455 11.1802 5.41155 11.6092L3.91455 12.9397C3.83549 13.0101 3.77222 13.0964 3.72889 13.193C3.68556 13.2895 3.66316 13.3942 3.66316 13.5C3.66316 13.6058 3.68556 13.7105 3.72889 13.807C3.77222 13.9036 3.83549 13.9899 3.91455 14.0602L5.4108 15.39C5.89455 15.8205 6.65955 15.477 6.65955 14.8297Z" fill="#AF52DE"/>
</g>
<defs>
<clipPath id="clip0_52_3828">
<rect width="18" height="18" fill="white" transform="translate(0.659546)"/>
</clipPath>
</defs>
</svg>
