<svg width="15" height="15" viewBox="0 0 15 15" fill="none" xmlns="http://www.w3.org/2000/svg">
<g clip-path="url(#clip0_52_3867)">
<path fill-rule="evenodd" clip-rule="evenodd" d="M4.63543 11.6248L8.75201 7.49597L4.63543 3.3753C4.52917 3.26528 4.47037 3.11793 4.4717 2.96498C4.47303 2.81204 4.53438 2.66573 4.64253 2.55757C4.75069 2.44942 4.897 2.38807 5.04994 2.38674C5.20289 2.38541 5.35024 2.44421 5.46026 2.55047L9.98926 7.08297C10.0435 7.13714 10.0865 7.20148 10.1159 7.27229C10.1452 7.34311 10.1603 7.41902 10.1603 7.49568C10.1603 7.57233 10.1452 7.64824 10.1159 7.71906C10.0865 7.78987 10.0435 7.85421 9.98926 7.90838L5.46026 12.4496C5.35024 12.5559 5.20289 12.6147 5.04994 12.6134C4.897 12.612 4.75069 12.5507 4.64253 12.4425C4.53438 12.3344 4.47303 12.1881 4.4717 12.0351C4.47037 11.8822 4.52917 11.7348 4.63543 11.6248Z" fill="#262626" fill-opacity="0.75"/>
</g>
<defs>
<clipPath id="clip0_52_3867">
<rect width="14" height="14" fill="white" transform="translate(0.0195312 0.5)"/>
</clipPath>
</defs>
</svg>
