<svg width="19" height="18" viewBox="0 0 19 18" fill="none" xmlns="http://www.w3.org/2000/svg">
<g clip-path="url(#clip0_52_3818)">
<path fill-rule="evenodd" clip-rule="evenodd" d="M14.3795 5.7435C13.28 6.2385 11.6713 6.50025 9.87952 6.50025C8.08852 6.50025 6.47902 6.23775 5.37952 5.74275L5.37952 9C5.37952 9.039 5.70127 9.294 6.39802 9.5265C7.29202 9.825 8.53552 9.99975 9.87952 9.99975C11.2228 9.99975 12.467 9.825 13.361 9.52725C14.0585 9.294 14.3795 9.03975 14.3795 9L14.3795 5.7435ZM15.6095 3.174C15.7745 3.31125 15.8795 3.519 15.8795 3.75L15.8795 14.0002C15.8795 15.6067 13.2043 16.5 9.87952 16.5C6.55477 16.5 3.87952 15.6075 3.87952 14.0002L3.87952 3.75C3.87952 3.51825 3.98452 3.31125 4.14952 3.174C4.90927 2.09175 7.18852 1.5 9.87952 1.5C12.5705 1.5 14.8498 2.09175 15.6095 3.174ZM14.3795 10.746C13.2823 11.2395 11.6758 11.4998 9.87952 11.4998C8.08327 11.4998 6.47752 11.2395 5.37952 10.746L5.37952 14.0002C5.37952 14.0392 5.70127 14.2942 6.39802 14.5267C7.29202 14.8252 8.53552 15 9.87952 15C11.2228 15 12.467 14.8252 13.361 14.5267C14.0585 14.2942 14.3795 14.0392 14.3795 14.0002L14.3795 10.746ZM5.38327 4.00875L5.38327 3.993C5.39302 3.993 5.42377 4.0275 5.50627 4.09275C5.69377 4.2405 6.00127 4.39275 6.40402 4.527C7.30027 4.8255 8.54452 5.001 9.87952 5.001C11.2145 5.001 12.4588 4.8255 13.355 4.527C13.7578 4.392 14.0653 4.2405 14.2528 4.09275C14.3353 4.02825 14.3653 3.99375 14.3758 3.993L14.3758 4.00875C14.366 4.00875 14.3353 3.9735 14.2528 3.909C14.0653 3.76125 13.7578 3.609 13.355 3.47475C12.4588 3.1755 11.2145 3 9.87952 3C8.54452 3 7.30027 3.1755 6.40402 3.474C6.00127 3.609 5.69377 3.7605 5.50627 3.90825C5.42377 3.97275 5.39377 4.008 5.38327 4.00875Z" fill="#007AFF"/>
</g>
<defs>
<clipPath id="clip0_52_3818">
<rect width="18" height="18" fill="white" transform="translate(0.879517)"/>
</clipPath>
</defs>
</svg>
