<svg width="14" height="16" viewBox="0 0 14 16" fill="none" xmlns="http://www.w3.org/2000/svg">
<g clip-path="url(#clip0_52_5409)">
<path fill-rule="evenodd" clip-rule="evenodd" d="M4.61541 12.1247L8.73199 7.99591L4.61541 3.87524C4.50915 3.76522 4.45035 3.61787 4.45168 3.46492C4.45301 3.31197 4.51436 3.16567 4.62251 3.05751C4.73067 2.94936 4.87698 2.88801 5.02992 2.88668C5.18287 2.88535 5.33022 2.94415 5.44024 3.05041L9.96924 7.58291C10.0235 7.63708 10.0665 7.70142 10.0959 7.77223C10.1252 7.84305 10.1403 7.91896 10.1403 7.99561C10.1403 8.07227 10.1252 8.14818 10.0959 8.219C10.0665 8.28981 10.0235 8.35415 9.96924 8.40832L5.44024 12.9496C5.33022 13.0558 5.18287 13.1146 5.02992 13.1133C4.87698 13.112 4.73067 13.0506 4.62251 12.9425C4.51436 12.8343 4.45301 12.688 4.45168 12.5351C4.45035 12.3821 4.50915 12.2348 4.61541 12.1247Z" fill="#262626" fill-opacity="0.75"/>
</g>
<defs>
<clipPath id="clip0_52_5409">
<rect width="14" height="16" fill="white" transform="translate(-0.000488281)"/>
</clipPath>
</defs>
</svg>
