<svg width="15" height="15" viewBox="0 0 15 15" fill="none" xmlns="http://www.w3.org/2000/svg">
<g clip-path="url(#clip0_52_3845)">
<path fill-rule="evenodd" clip-rule="evenodd" d="M10.0259 3.37526L5.90931 7.5041L10.0259 11.6248C10.1322 11.7348 10.1909 11.8821 10.1896 12.0351C10.1883 12.188 10.1269 12.3343 10.0188 12.4425C9.91063 12.5506 9.76433 12.612 9.61138 12.6133C9.45843 12.6147 9.31108 12.5559 9.20106 12.4496L4.67206 7.9171C4.61782 7.86292 4.5748 7.79858 4.54544 7.72777C4.51609 7.65695 4.50098 7.58105 4.50098 7.50439C4.50098 7.42773 4.51609 7.35182 4.54544 7.28101C4.5748 7.21019 4.61782 7.14586 4.67206 7.09168L9.20106 2.55043C9.25522 2.49623 9.31952 2.45323 9.3903 2.42389C9.46108 2.39454 9.53694 2.37942 9.61356 2.37939C9.69018 2.37937 9.76606 2.39443 9.83686 2.42373C9.90765 2.45302 9.97199 2.49598 10.0262 2.55014C10.0804 2.6043 10.1234 2.6686 10.1527 2.73938C10.1821 2.81016 10.1972 2.88602 10.1972 2.96264C10.1972 3.03926 10.1822 3.11513 10.1529 3.18593C10.1236 3.25673 10.0801 3.32107 10.0259 3.37526Z" fill="#262626" fill-opacity="0.75"/>
</g>
<defs>
<clipPath id="clip0_52_3845">
<rect width="14" height="14" fill="white" transform="translate(0.639526 0.5)"/>
</clipPath>
</defs>
</svg>
