<svg width="19" height="18" viewBox="0 0 19 18" fill="none" xmlns="http://www.w3.org/2000/svg">
<g clip-path="url(#clip0_52_3823)">
<path d="M6.07955 1.5C6.27846 1.5 6.46922 1.57902 6.60988 1.71967C6.75053 1.86032 6.82955 2.05109 6.82955 2.25L6.82955 3.525L7.4873 3.525C7.71755 3.525 7.91105 3.60525 8.07455 3.76875C8.23805 3.93225 8.3183 4.12575 8.3183 4.356L8.3183 4.37625C8.3183 4.60575 8.23805 4.7955 8.07605 4.9515L8.07455 4.953C7.99865 5.03178 7.90733 5.09408 7.8063 5.13601C7.70526 5.17795 7.59667 5.19863 7.4873 5.19675L5.4983 5.19675C5.0858 5.19675 4.7333 5.3415 4.44455 5.6295L4.4438 5.631C4.30505 5.76857 4.19533 5.93259 4.12113 6.11333C4.04692 6.29408 4.00975 6.48788 4.0118 6.68325C4.0118 6.96825 4.0793 7.22325 4.2188 7.44375C4.35755 7.66275 4.5638 7.842 4.8308 7.983C4.9208 8.03025 5.11955 8.09775 5.41205 8.1855C5.70905 8.2755 6.11405 8.388 6.62705 8.5245C7.38455 8.74125 7.92455 9.015 8.26055 9.33825L8.2613 9.33825C8.7383 9.7905 8.98505 10.4505 8.98505 11.3385C8.98505 12.2115 8.67905 12.9547 8.06405 13.5765C7.71895 13.9264 7.29591 14.1895 6.82955 14.3445L6.82955 15.75C6.82955 15.9489 6.75053 16.1397 6.60988 16.2803C6.46922 16.421 6.27846 16.5 6.07955 16.5C5.88063 16.5 5.68987 16.421 5.54922 16.2803C5.40856 16.1397 5.32955 15.9489 5.32955 15.75L5.32955 14.4975L3.15005 14.4975C2.92805 14.4975 2.73755 14.4172 2.5733 14.253L2.5718 14.2515C2.49314 14.1781 2.43089 14.0889 2.38914 13.9898C2.34738 13.8906 2.32708 13.7838 2.32955 13.6763L2.32955 13.656C2.32955 13.4265 2.4098 13.233 2.5733 13.0695C2.7383 12.9045 2.92805 12.825 3.1508 12.825L5.9288 12.825C6.3413 12.825 6.69455 12.6803 6.98255 12.3923C7.27055 12.1043 7.4153 11.751 7.4153 11.3385C7.4153 11.0663 7.34705 10.8232 7.2068 10.6147C7.06655 10.4062 6.85955 10.2398 6.5933 10.1093L6.5918 10.1093C6.41286 10.0403 6.23064 9.98024 6.0458 9.92925C5.74955 9.83925 5.3348 9.71925 4.80155 9.56925C4.05155 9.3465 3.51155 9.06675 3.16655 8.736C2.6888 8.2635 2.44205 7.5855 2.44205 6.68325C2.44205 5.811 2.7488 5.07075 3.36305 4.45575C3.91955 3.9 4.57355 3.59325 5.32955 3.5355L5.32955 2.25C5.32955 2.05109 5.40856 1.86032 5.54922 1.71967C5.68987 1.57902 5.88063 1.5 6.07955 1.5ZM10.9515 7.149C10.8659 7.09735 10.7709 7.06335 10.6719 7.04898C10.573 7.03461 10.4721 7.04017 10.3754 7.06534C10.2786 7.0905 10.1878 7.13476 10.1084 7.19551C10.029 7.25626 9.96256 7.33228 9.91295 7.41909C9.86335 7.5059 9.8316 7.60176 9.81958 7.70102C9.80756 7.80028 9.8155 7.90094 9.84295 7.99708C9.8704 8.09322 9.91679 8.18291 9.9794 8.26086C10.042 8.33882 10.1196 8.40346 10.2075 8.451L14.3175 10.8L10.2075 13.149C10.1196 13.1965 10.042 13.2612 9.9794 13.3391C9.91679 13.4171 9.8704 13.5068 9.84295 13.6029C9.8155 13.6991 9.80756 13.7997 9.81958 13.899C9.8316 13.9982 9.86335 14.0941 9.91295 14.1809C9.96256 14.2677 10.029 14.3437 10.1084 14.4045C10.1878 14.4652 10.2786 14.5095 10.3754 14.5347C10.4721 14.5598 10.573 14.5654 10.6719 14.551C10.7709 14.5367 10.8659 14.5026 10.9515 14.451L15.0615 12.102C16.0695 11.5267 16.0695 10.0733 15.0615 9.49725L10.9515 7.149Z" fill="#2DB55D"/>
</g>
<defs>
<clipPath id="clip0_52_3823">
<rect width="18" height="18" fill="white" transform="translate(0.0795898)"/>
</clipPath>
</defs>
</svg>
