<svg width="15" height="15" viewBox="0 0 15 15" fill="none" xmlns="http://www.w3.org/2000/svg">
<g clip-path="url(#clip0_52_3861)">
<path fill-rule="evenodd" clip-rule="evenodd" d="M3.00627 8.66671C3.31569 8.66671 3.61243 8.54379 3.83122 8.325C4.05002 8.10621 4.17293 7.80946 4.17293 7.50004C4.17293 7.19062 4.05002 6.89388 3.83122 6.67508C3.61243 6.45629 3.31569 6.33337 3.00627 6.33337C2.69685 6.33337 2.4001 6.45629 2.18131 6.67508C1.96252 6.89388 1.8396 7.19062 1.8396 7.50004C1.8396 7.80946 1.96252 8.10621 2.18131 8.325C2.4001 8.54379 2.69685 8.66671 3.00627 8.66671ZM8.60627 7.50004C8.60627 7.80946 8.48335 8.10621 8.26456 8.325C8.04576 8.54379 7.74902 8.66671 7.4396 8.66671C7.13018 8.66671 6.83343 8.54379 6.61464 8.325C6.39585 8.10621 6.27293 7.80946 6.27293 7.50004C6.27293 7.19062 6.39585 6.89388 6.61464 6.67508C6.83343 6.45629 7.13018 6.33337 7.4396 6.33337C7.74902 6.33337 8.04576 6.45629 8.26456 6.67508C8.48335 6.89388 8.60627 7.19062 8.60627 7.50004ZM13.0396 7.50004C13.0396 7.80946 12.9167 8.10621 12.6979 8.325C12.4791 8.54379 12.1824 8.66671 11.8729 8.66671C11.5635 8.66671 11.2668 8.54379 11.048 8.325C10.8292 8.10621 10.7063 7.80946 10.7063 7.50004C10.7063 7.19062 10.8292 6.89388 11.048 6.67508C11.2668 6.45629 11.5635 6.33337 11.8729 6.33337C12.1824 6.33337 12.4791 6.45629 12.6979 6.67508C12.9167 6.89388 13.0396 7.19062 13.0396 7.50004Z" fill="#262626" fill-opacity="0.75"/>
</g>
<defs>
<clipPath id="clip0_52_3861">
<rect width="14" height="14" fill="white" transform="translate(0.439575 0.5)"/>
</clipPath>
</defs>
</svg>
