<svg width="16" height="16" viewBox="0 0 16 16" fill="none" xmlns="http://www.w3.org/2000/svg">
<g clip-path="url(#clip0_52_7013)">
<path fill-rule="evenodd" clip-rule="evenodd" d="M3.6842 3.68464C4.58058 2.78605 5.78516 2.26198 7.05367 2.21873C8.32218 2.17547 9.55966 2.61626 10.5152 3.4517C11.4707 4.28714 12.0727 5.45471 12.1992 6.71764C12.3257 7.98056 11.9671 9.24432 11.1962 10.2526L13.5835 12.6413C13.7086 12.7663 13.7789 12.9359 13.779 13.1127C13.7791 13.2896 13.7089 13.4592 13.5839 13.5843C13.4589 13.7094 13.2893 13.7797 13.1124 13.7798C12.9356 13.7798 12.766 13.7096 12.6409 13.5846L10.2529 11.196C9.24431 11.9639 7.98177 12.3201 6.72059 12.1926C5.45941 12.0651 4.29371 11.4634 3.45925 10.5092C2.6248 9.55496 2.18386 8.31946 2.22562 7.05254C2.26738 5.78561 2.78871 4.58183 3.6842 3.68464ZM4.62686 4.62731C3.93916 5.31501 3.55281 6.24774 3.55281 7.22031C3.55281 8.19287 3.93916 9.1256 4.62686 9.81331C5.31457 10.501 6.2473 10.8874 7.21986 10.8874C8.19243 10.8874 9.12516 10.501 9.81286 9.81331C10.5007 9.12551 10.8871 8.19266 10.8871 7.21997C10.8871 6.24728 10.5007 5.31443 9.81286 4.62664C9.12507 3.93884 8.19222 3.55245 7.21953 3.55245C6.24684 3.55245 5.31399 3.93884 4.6262 4.62664L4.62686 4.62731Z" fill="#8C8C8C"/>
</g>
<defs>
<clipPath id="clip0_52_7013">
<rect width="16" height="16" fill="white" transform="translate(-0.000488281)"/>
</clipPath>
</defs>
</svg>
